<svg width="467" height="337" viewBox="0 0 467 337" fill="none" xmlns="http://www.w3.org/2000/svg">
<path d="M422.142 43.9057C483.261 105.992 463.193 175.108 440.354 209.258C417.515 243.407 431.473 275.378 431.473 275.378L467 337L379.45 275.378C379.45 275.378 348.825 262.311 326.818 264.908C258.812 272.934 129.289 300.264 69.8548 264.908C-8.81293 218.111 -23.0768 121.096 37.4819 51.7375C94.3438 -13.3873 361.022 -18.1807 422.142 43.9057Z" fill="#3E3F5E"/>
<path d="M71.5653 99.4C72.0933 99.448 72.5253 99.652 72.8613 100.012C73.1973 100.372 73.3653 100.828 73.3653 101.38C73.3653 101.98 73.1853 102.472 72.8253 102.856C72.4653 103.216 72.0093 103.396 71.4573 103.396C70.8333 103.396 70.3293 103.168 69.9453 102.712C69.5853 102.256 69.4053 101.548 69.4053 100.588C69.4053 98.74 70.0173 97.144 71.2413 95.8C71.4813 95.56 71.7573 95.44 72.0693 95.44C72.3333 95.44 72.5613 95.536 72.7533 95.728C72.9453 95.896 73.0413 96.1 73.0413 96.34C73.0413 96.604 72.9453 96.832 72.7533 97.024C72.1293 97.672 71.7333 98.464 71.5653 99.4ZM77.5413 99.4C78.0693 99.448 78.5013 99.652 78.8373 100.012C79.1733 100.372 79.3413 100.828 79.3413 101.38C79.3413 101.98 79.1613 102.472 78.8013 102.856C78.4413 103.216 77.9853 103.396 77.4333 103.396C76.8093 103.396 76.3053 103.168 75.9213 102.712C75.5613 102.256 75.3813 101.548 75.3813 100.588C75.3813 98.74 75.9933 97.144 77.2173 95.8C77.4573 95.56 77.7333 95.44 78.0453 95.44C78.3093 95.44 78.5373 95.536 78.7293 95.728C78.9213 95.896 79.0173 96.1 79.0173 96.34C79.0173 96.604 78.9213 96.832 78.7293 97.024C78.1053 97.672 77.7093 98.464 77.5413 99.4ZM83.7259 121.18C83.1499 121.18 82.6699 121 82.2859 120.64C81.9019 120.256 81.7099 119.764 81.7099 119.164C81.7099 118.564 81.9019 118.072 82.2859 117.688C82.6699 117.304 83.1499 117.112 83.7259 117.112C84.2779 117.112 84.7339 117.304 85.0939 117.688C85.4779 118.072 85.6699 118.564 85.6699 119.164C85.6699 119.764 85.4779 120.256 85.0939 120.64C84.7339 121 84.2779 121.18 83.7259 121.18ZM91.9525 121.18C91.3765 121.18 90.8965 121 90.5125 120.64C90.1285 120.256 89.9365 119.764 89.9365 119.164C89.9365 118.564 90.1285 118.072 90.5125 117.688C90.8965 117.304 91.3765 117.112 91.9525 117.112C92.5045 117.112 92.9605 117.304 93.3205 117.688C93.7045 118.072 93.8965 118.564 93.8965 119.164C93.8965 119.764 93.7045 120.256 93.3205 120.64C92.9605 121 92.5045 121.18 91.9525 121.18ZM121.414 104.044C121.654 103.468 122.05 103.18 122.602 103.18C122.962 103.18 123.286 103.3 123.574 103.54C123.862 103.78 124.006 104.08 124.006 104.44C124.006 104.608 123.97 104.788 123.898 104.98L117.922 120.1C117.778 120.412 117.562 120.664 117.274 120.856C117.01 121.024 116.71 121.108 116.374 121.108C116.062 121.108 115.762 121.024 115.474 120.856C115.21 120.664 115.006 120.412 114.862 120.1L109.894 107.464L104.962 120.1C104.842 120.412 104.638 120.664 104.35 120.856C104.062 121.024 103.75 121.108 103.414 121.108C103.102 121.108 102.802 121.024 102.514 120.856C102.226 120.664 102.01 120.412 101.866 120.1L95.8903 105.016C95.8183 104.824 95.7823 104.656 95.7823 104.512C95.7823 104.128 95.9383 103.804 96.2503 103.54C96.5863 103.276 96.9463 103.144 97.3303 103.144C97.9063 103.144 98.3143 103.432 98.5543 104.008L103.486 117.292L108.562 104.116C108.706 103.804 108.898 103.564 109.138 103.396C109.402 103.228 109.678 103.144 109.966 103.144C110.278 103.144 110.554 103.228 110.794 103.396C111.058 103.564 111.25 103.804 111.37 104.116L116.446 117.256L121.414 104.044ZM141.104 116.932C141.368 116.932 141.596 117.04 141.788 117.256C141.98 117.472 142.076 117.748 142.076 118.084C142.076 118.684 141.656 119.236 140.816 119.74C139.952 120.244 139.04 120.628 138.08 120.892C137.12 121.132 136.184 121.252 135.272 121.252C132.56 121.252 130.412 120.448 128.828 118.84C127.268 117.232 126.488 115.012 126.488 112.18C126.488 110.38 126.836 108.796 127.532 107.428C128.228 106.036 129.2 104.956 130.448 104.188C131.72 103.42 133.16 103.036 134.768 103.036C137.048 103.036 138.86 103.78 140.204 105.268C141.548 106.756 142.22 108.772 142.22 111.316C142.22 111.796 142.124 112.144 141.932 112.36C141.74 112.576 141.428 112.684 140.996 112.684H129.404C129.62 116.812 131.576 118.876 135.272 118.876C136.208 118.876 137.012 118.756 137.684 118.516C138.356 118.252 139.076 117.904 139.844 117.472C140.468 117.112 140.888 116.932 141.104 116.932ZM134.804 105.304C133.268 105.304 132.032 105.784 131.096 106.744C130.184 107.704 129.644 109.06 129.476 110.812H139.664C139.616 109.036 139.172 107.68 138.332 106.744C137.492 105.784 136.316 105.304 134.804 105.304ZM161.702 121.252C160.598 121.252 159.542 121.12 158.534 120.856C157.55 120.592 156.674 120.22 155.906 119.74C155.474 119.452 155.162 119.188 154.97 118.948C154.802 118.684 154.718 118.372 154.718 118.012C154.718 117.7 154.802 117.448 154.97 117.256C155.162 117.04 155.402 116.932 155.69 116.932C155.978 116.932 156.398 117.112 156.95 117.472C157.67 117.904 158.378 118.252 159.074 118.516C159.794 118.756 160.682 118.876 161.738 118.876C163.034 118.876 164.042 118.648 164.762 118.192C165.482 117.736 165.842 117.076 165.842 116.212C165.842 115.684 165.71 115.264 165.446 114.952C165.182 114.616 164.726 114.328 164.078 114.088C163.43 113.824 162.482 113.56 161.234 113.296C159.122 112.84 157.61 112.228 156.698 111.46C155.786 110.692 155.33 109.648 155.33 108.328C155.33 107.296 155.618 106.384 156.194 105.592C156.77 104.8 157.562 104.176 158.57 103.72C159.602 103.264 160.766 103.036 162.062 103.036C162.998 103.036 163.898 103.168 164.762 103.432C165.65 103.672 166.43 104.02 167.102 104.476C167.918 105.052 168.326 105.652 168.326 106.276C168.326 106.588 168.23 106.852 168.038 107.068C167.846 107.284 167.618 107.392 167.354 107.392C167.066 107.392 166.634 107.188 166.058 106.78C165.386 106.348 164.75 106.012 164.15 105.772C163.55 105.532 162.806 105.412 161.918 105.412C160.79 105.412 159.878 105.664 159.182 106.168C158.51 106.672 158.174 107.344 158.174 108.184C158.174 108.712 158.294 109.144 158.534 109.48C158.798 109.792 159.218 110.08 159.794 110.344C160.394 110.584 161.246 110.824 162.35 111.064C163.982 111.424 165.242 111.82 166.13 112.252C167.042 112.684 167.69 113.212 168.074 113.836C168.458 114.46 168.65 115.252 168.65 116.212C168.65 117.724 168.014 118.948 166.742 119.884C165.47 120.796 163.79 121.252 161.702 121.252ZM181.019 118.876C181.859 118.948 182.279 119.332 182.279 120.028C182.279 120.436 182.123 120.748 181.811 120.964C181.523 121.156 181.079 121.228 180.479 121.18L179.507 121.108C177.587 120.964 176.171 120.388 175.259 119.38C174.347 118.372 173.891 116.848 173.891 114.808V105.772H171.479C171.071 105.772 170.747 105.676 170.507 105.484C170.291 105.268 170.183 104.992 170.183 104.656C170.183 104.296 170.291 104.008 170.507 103.792C170.747 103.576 171.071 103.468 171.479 103.468H173.891V99.4C173.891 98.944 174.023 98.596 174.287 98.356C174.551 98.092 174.911 97.96 175.367 97.96C175.799 97.96 176.147 98.092 176.411 98.356C176.675 98.596 176.807 98.944 176.807 99.4V103.468H180.803C181.187 103.468 181.487 103.576 181.703 103.792C181.943 104.008 182.063 104.296 182.063 104.656C182.063 104.992 181.943 105.268 181.703 105.484C181.487 105.676 181.187 105.772 180.803 105.772H176.807V114.952C176.807 116.272 177.071 117.232 177.599 117.832C178.151 118.408 178.967 118.732 180.047 118.804L181.019 118.876ZM186.629 121.18C186.197 121.18 185.837 121.06 185.549 120.82C185.285 120.556 185.153 120.196 185.153 119.74V104.548C185.153 104.092 185.285 103.744 185.549 103.504C185.837 103.24 186.197 103.108 186.629 103.108C187.061 103.108 187.409 103.24 187.673 103.504C187.937 103.744 188.069 104.092 188.069 104.548V119.74C188.069 120.22 187.937 120.58 187.673 120.82C187.409 121.06 187.061 121.18 186.629 121.18ZM186.629 99.328C186.053 99.328 185.585 99.16 185.225 98.824C184.865 98.488 184.685 98.044 184.685 97.492C184.685 96.964 184.865 96.532 185.225 96.196C185.585 95.86 186.053 95.692 186.629 95.692C187.205 95.692 187.673 95.86 188.033 96.196C188.393 96.532 188.573 96.964 188.573 97.492C188.573 98.044 188.393 98.488 188.033 98.824C187.673 99.16 187.205 99.328 186.629 99.328ZM194.996 121.18C194.564 121.18 194.204 121.06 193.916 120.82C193.652 120.556 193.52 120.196 193.52 119.74V96.88C193.52 96.424 193.652 96.076 193.916 95.836C194.204 95.572 194.564 95.44 194.996 95.44C195.404 95.44 195.74 95.572 196.004 95.836C196.292 96.076 196.436 96.424 196.436 96.88V119.74C196.436 120.196 196.292 120.556 196.004 120.82C195.74 121.06 195.404 121.18 194.996 121.18ZM203.364 121.18C202.932 121.18 202.572 121.06 202.284 120.82C202.02 120.556 201.888 120.196 201.888 119.74V96.88C201.888 96.424 202.02 96.076 202.284 95.836C202.572 95.572 202.932 95.44 203.364 95.44C203.772 95.44 204.108 95.572 204.372 95.836C204.66 96.076 204.804 96.424 204.804 96.88V119.74C204.804 120.196 204.66 120.556 204.372 120.82C204.108 121.06 203.772 121.18 203.364 121.18ZM228.392 103.036C230.456 103.036 232.016 103.624 233.072 104.8C234.128 105.952 234.656 107.68 234.656 109.984V119.74C234.656 120.196 234.524 120.556 234.26 120.82C233.996 121.06 233.648 121.18 233.216 121.18C232.76 121.18 232.4 121.06 232.136 120.82C231.872 120.556 231.74 120.196 231.74 119.74V110.056C231.74 108.496 231.416 107.344 230.768 106.6C230.144 105.856 229.136 105.484 227.744 105.484C226.136 105.484 224.852 105.976 223.892 106.96C222.932 107.944 222.452 109.276 222.452 110.956V119.74C222.452 120.196 222.32 120.556 222.056 120.82C221.816 121.06 221.468 121.18 221.012 121.18C220.556 121.18 220.196 121.06 219.932 120.82C219.668 120.556 219.536 120.196 219.536 119.74V96.844C219.536 96.436 219.668 96.1 219.932 95.836C220.22 95.572 220.58 95.44 221.012 95.44C221.468 95.44 221.816 95.572 222.056 95.836C222.32 96.076 222.452 96.412 222.452 96.844V106.276C223.028 105.22 223.832 104.416 224.864 103.864C225.896 103.312 227.072 103.036 228.392 103.036ZM247.161 103.036C251.553 103.036 253.749 105.34 253.749 109.948V119.74C253.749 120.172 253.617 120.52 253.353 120.784C253.113 121.048 252.777 121.18 252.345 121.18C251.913 121.18 251.565 121.048 251.301 120.784C251.037 120.52 250.905 120.172 250.905 119.74V118.012C250.449 119.044 249.753 119.848 248.817 120.424C247.881 120.976 246.801 121.252 245.577 121.252C244.449 121.252 243.405 121.024 242.445 120.568C241.509 120.112 240.765 119.476 240.213 118.66C239.661 117.844 239.385 116.944 239.385 115.96C239.385 114.64 239.721 113.62 240.393 112.9C241.065 112.156 242.169 111.628 243.705 111.316C245.241 110.98 247.377 110.812 250.113 110.812H250.905V109.624C250.905 108.184 250.605 107.128 250.005 106.456C249.429 105.784 248.481 105.448 247.161 105.448C245.529 105.448 243.873 105.892 242.193 106.78C241.545 107.188 241.089 107.392 240.825 107.392C240.537 107.392 240.297 107.284 240.105 107.068C239.913 106.852 239.817 106.576 239.817 106.24C239.817 105.904 239.913 105.616 240.105 105.376C240.321 105.112 240.657 104.848 241.113 104.584C241.953 104.104 242.901 103.732 243.957 103.468C245.037 103.18 246.105 103.036 247.161 103.036ZM245.973 118.948C247.413 118.948 248.589 118.468 249.501 117.508C250.437 116.524 250.905 115.264 250.905 113.728V112.684H250.257C248.145 112.684 246.537 112.78 245.433 112.972C244.329 113.14 243.537 113.44 243.057 113.872C242.601 114.28 242.373 114.892 242.373 115.708C242.373 116.644 242.709 117.424 243.381 118.048C244.077 118.648 244.941 118.948 245.973 118.948ZM271.723 104.008C271.987 103.432 272.407 103.144 272.983 103.144C273.343 103.144 273.667 103.264 273.955 103.504C274.243 103.744 274.387 104.044 274.387 104.404C274.387 104.62 274.339 104.812 274.243 104.98L267.223 120.1C267.079 120.412 266.863 120.664 266.575 120.856C266.287 121.024 265.975 121.108 265.639 121.108C265.327 121.108 265.027 121.024 264.739 120.856C264.451 120.664 264.223 120.412 264.055 120.1L257.071 104.98C256.975 104.812 256.927 104.632 256.927 104.44C256.927 104.08 257.083 103.768 257.395 103.504C257.731 103.24 258.091 103.108 258.475 103.108C258.715 103.108 258.943 103.18 259.159 103.324C259.399 103.468 259.579 103.672 259.699 103.936L265.711 117.436L271.723 104.008ZM290.94 116.932C291.204 116.932 291.432 117.04 291.624 117.256C291.816 117.472 291.912 117.748 291.912 118.084C291.912 118.684 291.492 119.236 290.652 119.74C289.788 120.244 288.876 120.628 287.916 120.892C286.956 121.132 286.02 121.252 285.108 121.252C282.396 121.252 280.248 120.448 278.664 118.84C277.104 117.232 276.324 115.012 276.324 112.18C276.324 110.38 276.672 108.796 277.368 107.428C278.064 106.036 279.036 104.956 280.284 104.188C281.556 103.42 282.996 103.036 284.604 103.036C286.884 103.036 288.696 103.78 290.04 105.268C291.384 106.756 292.056 108.772 292.056 111.316C292.056 111.796 291.96 112.144 291.768 112.36C291.576 112.576 291.264 112.684 290.832 112.684H279.24C279.456 116.812 281.412 118.876 285.108 118.876C286.044 118.876 286.848 118.756 287.52 118.516C288.192 118.252 288.912 117.904 289.68 117.472C290.304 117.112 290.724 116.932 290.94 116.932ZM284.64 105.304C283.104 105.304 281.868 105.784 280.932 106.744C280.02 107.704 279.48 109.06 279.312 110.812H289.5C289.452 109.036 289.008 107.68 288.168 106.744C287.328 105.784 286.152 105.304 284.64 105.304ZM311.538 121.252C310.434 121.252 309.378 121.12 308.37 120.856C307.386 120.592 306.51 120.22 305.742 119.74C305.31 119.452 304.998 119.188 304.806 118.948C304.638 118.684 304.554 118.372 304.554 118.012C304.554 117.7 304.638 117.448 304.806 117.256C304.998 117.04 305.238 116.932 305.526 116.932C305.814 116.932 306.234 117.112 306.786 117.472C307.506 117.904 308.214 118.252 308.91 118.516C309.63 118.756 310.518 118.876 311.574 118.876C312.87 118.876 313.878 118.648 314.598 118.192C315.318 117.736 315.678 117.076 315.678 116.212C315.678 115.684 315.546 115.264 315.282 114.952C315.018 114.616 314.562 114.328 313.914 114.088C313.266 113.824 312.318 113.56 311.07 113.296C308.958 112.84 307.446 112.228 306.534 111.46C305.622 110.692 305.166 109.648 305.166 108.328C305.166 107.296 305.454 106.384 306.03 105.592C306.606 104.8 307.398 104.176 308.406 103.72C309.438 103.264 310.602 103.036 311.898 103.036C312.834 103.036 313.734 103.168 314.598 103.432C315.486 103.672 316.266 104.02 316.938 104.476C317.754 105.052 318.162 105.652 318.162 106.276C318.162 106.588 318.066 106.852 317.874 107.068C317.682 107.284 317.454 107.392 317.19 107.392C316.902 107.392 316.47 107.188 315.894 106.78C315.222 106.348 314.586 106.012 313.986 105.772C313.386 105.532 312.642 105.412 311.754 105.412C310.626 105.412 309.714 105.664 309.018 106.168C308.346 106.672 308.01 107.344 308.01 108.184C308.01 108.712 308.13 109.144 308.37 109.48C308.634 109.792 309.054 110.08 309.63 110.344C310.23 110.584 311.082 110.824 312.186 111.064C313.818 111.424 315.078 111.82 315.966 112.252C316.878 112.684 317.526 113.212 317.91 113.836C318.294 114.46 318.486 115.252 318.486 116.212C318.486 117.724 317.85 118.948 316.578 119.884C315.306 120.796 313.626 121.252 311.538 121.252ZM336.25 103.108C336.706 103.108 337.054 103.24 337.294 103.504C337.558 103.768 337.69 104.116 337.69 104.548V119.776C337.69 120.184 337.558 120.52 337.294 120.784C337.054 121.048 336.706 121.18 336.25 121.18C335.818 121.18 335.47 121.06 335.206 120.82C334.966 120.556 334.846 120.22 334.846 119.812V118.012C334.294 119.068 333.514 119.872 332.506 120.424C331.522 120.976 330.406 121.252 329.158 121.252C327.07 121.252 325.498 120.676 324.442 119.524C323.386 118.348 322.858 116.62 322.858 114.34V104.548C322.858 104.116 322.99 103.768 323.254 103.504C323.518 103.24 323.878 103.108 324.334 103.108C324.79 103.108 325.138 103.24 325.378 103.504C325.642 103.768 325.774 104.116 325.774 104.548V114.268C325.774 115.828 326.086 116.98 326.71 117.724C327.334 118.444 328.318 118.804 329.662 118.804C331.198 118.804 332.434 118.312 333.37 117.328C334.306 116.32 334.774 115 334.774 113.368V104.548C334.774 104.116 334.906 103.768 335.17 103.504C335.434 103.24 335.794 103.108 336.25 103.108ZM350.346 121.252C348.714 121.252 347.262 120.88 345.99 120.136C344.742 119.392 343.77 118.336 343.074 116.968C342.402 115.6 342.066 114.016 342.066 112.216C342.066 110.416 342.414 108.82 343.11 107.428C343.83 106.036 344.826 104.956 346.098 104.188C347.37 103.42 348.834 103.036 350.49 103.036C351.402 103.036 352.302 103.168 353.19 103.432C354.102 103.672 354.894 104.032 355.566 104.512C355.998 104.8 356.298 105.088 356.466 105.376C356.658 105.64 356.754 105.94 356.754 106.276C356.754 106.612 356.658 106.888 356.466 107.104C356.298 107.32 356.07 107.428 355.782 107.428C355.614 107.428 355.434 107.38 355.242 107.284C355.05 107.188 354.882 107.092 354.738 106.996C354.618 106.9 354.534 106.84 354.486 106.816C353.862 106.408 353.262 106.084 352.686 105.844C352.134 105.604 351.45 105.484 350.634 105.484C348.882 105.484 347.514 106.084 346.53 107.284C345.57 108.46 345.09 110.104 345.09 112.216C345.09 114.328 345.57 115.96 346.53 117.112C347.514 118.264 348.882 118.84 350.634 118.84C351.45 118.84 352.146 118.72 352.722 118.48C353.322 118.24 353.922 117.916 354.522 117.508C354.786 117.34 355.038 117.196 355.278 117.076C355.518 116.956 355.722 116.896 355.89 116.896C356.154 116.896 356.37 117.004 356.538 117.22C356.73 117.436 356.826 117.712 356.826 118.048C356.826 118.36 356.742 118.648 356.574 118.912C356.406 119.152 356.094 119.428 355.638 119.74C354.966 120.196 354.15 120.568 353.19 120.856C352.254 121.12 351.306 121.252 350.346 121.252ZM369.193 103.036C371.257 103.036 372.817 103.624 373.873 104.8C374.929 105.952 375.457 107.68 375.457 109.984V119.74C375.457 120.196 375.325 120.556 375.061 120.82C374.797 121.06 374.449 121.18 374.017 121.18C373.561 121.18 373.201 121.06 372.937 120.82C372.673 120.556 372.541 120.196 372.541 119.74V110.056C372.541 108.496 372.217 107.344 371.569 106.6C370.945 105.856 369.937 105.484 368.545 105.484C366.937 105.484 365.653 105.976 364.693 106.96C363.733 107.944 363.253 109.276 363.253 110.956V119.74C363.253 120.196 363.121 120.556 362.857 120.82C362.617 121.06 362.269 121.18 361.813 121.18C361.357 121.18 360.997 121.06 360.733 120.82C360.469 120.556 360.337 120.196 360.337 119.74V96.844C360.337 96.436 360.469 96.1 360.733 95.836C361.021 95.572 361.381 95.44 361.813 95.44C362.269 95.44 362.617 95.572 362.857 95.836C363.121 96.076 363.253 96.412 363.253 96.844V106.276C363.829 105.22 364.633 104.416 365.665 103.864C366.697 103.312 367.873 103.036 369.193 103.036ZM397.243 103.036C401.635 103.036 403.831 105.34 403.831 109.948V119.74C403.831 120.172 403.699 120.52 403.435 120.784C403.195 121.048 402.859 121.18 402.427 121.18C401.995 121.18 401.647 121.048 401.383 120.784C401.119 120.52 400.987 120.172 400.987 119.74V118.012C400.531 119.044 399.835 119.848 398.899 120.424C397.963 120.976 396.883 121.252 395.659 121.252C394.531 121.252 393.487 121.024 392.527 120.568C391.591 120.112 390.847 119.476 390.295 118.66C389.743 117.844 389.467 116.944 389.467 115.96C389.467 114.64 389.803 113.62 390.475 112.9C391.147 112.156 392.251 111.628 393.787 111.316C395.323 110.98 397.459 110.812 400.195 110.812H400.987V109.624C400.987 108.184 400.687 107.128 400.087 106.456C399.511 105.784 398.563 105.448 397.243 105.448C395.611 105.448 393.955 105.892 392.275 106.78C391.627 107.188 391.171 107.392 390.907 107.392C390.619 107.392 390.379 107.284 390.187 107.068C389.995 106.852 389.899 106.576 389.899 106.24C389.899 105.904 389.995 105.616 390.187 105.376C390.403 105.112 390.739 104.848 391.195 104.584C392.035 104.104 392.983 103.732 394.039 103.468C395.119 103.18 396.187 103.036 397.243 103.036ZM396.055 118.948C397.495 118.948 398.671 118.468 399.583 117.508C400.519 116.524 400.987 115.264 400.987 113.728V112.684H400.339C398.227 112.684 396.619 112.78 395.515 112.972C394.411 113.14 393.619 113.44 393.139 113.872C392.683 114.28 392.455 114.892 392.455 115.708C392.455 116.644 392.791 117.424 393.463 118.048C394.159 118.648 395.023 118.948 396.055 118.948ZM62.572 170.216C61.924 170.216 61.384 170.036 60.952 169.676C60.544 169.292 60.34 168.752 60.34 168.056V146.564C60.34 145.868 60.544 145.34 60.952 144.98C61.384 144.62 61.924 144.44 62.572 144.44C63.22 144.44 63.76 144.62 64.192 144.98C64.624 145.34 64.84 145.868 64.84 146.564V168.056C64.84 168.752 64.624 169.292 64.192 169.676C63.76 170.036 63.22 170.216 62.572 170.216ZM77.5086 170.288C75.7086 170.288 74.1246 169.916 72.7566 169.172C71.4126 168.428 70.3686 167.36 69.6246 165.968C68.8806 164.576 68.5086 162.956 68.5086 161.108C68.5086 159.26 68.8806 157.652 69.6246 156.284C70.3686 154.892 71.4126 153.824 72.7566 153.08C74.1246 152.336 75.7086 151.964 77.5086 151.964C79.3086 151.964 80.8806 152.336 82.2246 153.08C83.5926 153.824 84.6366 154.892 85.3566 156.284C86.1006 157.652 86.4726 159.26 86.4726 161.108C86.4726 162.956 86.1006 164.576 85.3566 165.968C84.6366 167.36 83.5926 168.428 82.2246 169.172C80.8806 169.916 79.3086 170.288 77.5086 170.288ZM77.4726 166.796C78.9366 166.796 80.0526 166.316 80.8206 165.356C81.5886 164.396 81.9726 162.98 81.9726 161.108C81.9726 159.26 81.5886 157.856 80.8206 156.896C80.0526 155.912 78.9486 155.42 77.5086 155.42C76.0686 155.42 74.9526 155.912 74.1606 156.896C73.3926 157.856 73.0086 159.26 73.0086 161.108C73.0086 162.98 73.3926 164.396 74.1606 165.356C74.9286 166.316 76.0326 166.796 77.4726 166.796ZM100.412 151.964C102.524 151.964 104.096 152.564 105.128 153.764C106.16 154.964 106.676 156.776 106.676 159.2V168.056C106.676 168.728 106.472 169.256 106.064 169.64C105.68 170.024 105.14 170.216 104.444 170.216C103.748 170.216 103.196 170.024 102.788 169.64C102.38 169.256 102.176 168.728 102.176 168.056V159.452C102.176 158.084 101.912 157.088 101.384 156.464C100.88 155.84 100.076 155.528 98.9717 155.528C97.6757 155.528 96.6317 155.936 95.8397 156.752C95.0717 157.568 94.6877 158.66 94.6877 160.028V168.056C94.6877 168.728 94.4837 169.256 94.0757 169.64C93.6677 170.024 93.1157 170.216 92.4197 170.216C91.7237 170.216 91.1717 170.024 90.7637 169.64C90.3797 169.256 90.1877 168.728 90.1877 168.056V154.124C90.1877 153.5 90.3917 152.996 90.7997 152.612C91.2077 152.228 91.7597 152.036 92.4557 152.036C93.0797 152.036 93.5837 152.228 93.9677 152.612C94.3757 152.972 94.5797 153.452 94.5797 154.052V155.024C95.1797 154.04 95.9837 153.284 96.9917 152.756C97.9997 152.228 99.1397 151.964 100.412 151.964ZM126.15 152.036C126.822 152.036 127.362 152.228 127.77 152.612C128.178 152.996 128.382 153.512 128.382 154.16V168.38C128.382 171.14 127.614 173.228 126.078 174.644C124.542 176.06 122.274 176.768 119.274 176.768C116.658 176.768 114.474 176.276 112.722 175.292C111.834 174.764 111.39 174.128 111.39 173.384C111.39 172.856 111.51 172.436 111.75 172.124C112.014 171.812 112.35 171.656 112.758 171.656C112.974 171.656 113.238 171.704 113.55 171.8C113.862 171.92 114.186 172.052 114.522 172.196C115.386 172.556 116.154 172.832 116.826 173.024C117.522 173.216 118.314 173.312 119.202 173.312C122.346 173.312 123.918 171.776 123.918 168.704V166.4C123.39 167.384 122.622 168.152 121.614 168.704C120.606 169.232 119.454 169.496 118.158 169.496C116.622 169.496 115.254 169.136 114.054 168.416C112.878 167.672 111.954 166.64 111.282 165.32C110.61 164 110.274 162.476 110.274 160.748C110.274 159.02 110.598 157.496 111.246 156.176C111.918 154.832 112.854 153.8 114.054 153.08C115.254 152.336 116.622 151.964 118.158 151.964C119.454 151.964 120.606 152.24 121.614 152.792C122.622 153.32 123.39 154.076 123.918 155.06V154.124C123.918 153.5 124.122 152.996 124.53 152.612C124.938 152.228 125.478 152.036 126.15 152.036ZM119.346 166.004C120.786 166.004 121.902 165.536 122.694 164.6C123.51 163.664 123.918 162.38 123.918 160.748C123.918 159.092 123.51 157.796 122.694 156.86C121.902 155.924 120.786 155.456 119.346 155.456C117.93 155.456 116.814 155.924 115.998 156.86C115.182 157.796 114.774 159.092 114.774 160.748C114.774 162.38 115.182 163.664 115.998 164.6C116.814 165.536 117.93 166.004 119.346 166.004ZM166.613 153.368C166.781 152.936 167.021 152.612 167.333 152.396C167.669 152.18 168.029 152.072 168.413 152.072C168.965 152.072 169.457 152.264 169.889 152.648C170.345 153.008 170.573 153.464 170.573 154.016C170.573 154.328 170.513 154.604 170.393 154.844L164.453 168.776C164.261 169.232 163.961 169.58 163.553 169.82C163.169 170.06 162.737 170.18 162.257 170.18C161.801 170.18 161.369 170.06 160.961 169.82C160.577 169.58 160.289 169.232 160.097 168.776L155.813 158.48L151.673 168.776C151.481 169.232 151.181 169.58 150.773 169.82C150.389 170.06 149.957 170.18 149.477 170.18C149.021 170.18 148.589 170.06 148.181 169.82C147.773 169.58 147.473 169.232 147.281 168.776L141.377 154.844C141.257 154.532 141.197 154.268 141.197 154.052C141.197 153.5 141.437 153.032 141.917 152.648C142.397 152.24 142.925 152.036 143.501 152.036C143.909 152.036 144.281 152.144 144.617 152.36C144.953 152.576 145.205 152.9 145.373 153.332L149.621 164.312L153.977 153.44C154.169 152.984 154.445 152.648 154.805 152.432C155.165 152.192 155.561 152.072 155.993 152.072C156.425 152.072 156.821 152.192 157.181 152.432C157.541 152.648 157.817 152.984 158.009 153.44L162.401 164.348L166.613 153.368ZM181.035 151.964C183.483 151.964 185.295 152.576 186.471 153.8C187.671 155 188.271 156.836 188.271 159.308V168.092C188.271 168.74 188.079 169.256 187.695 169.64C187.311 170 186.783 170.18 186.111 170.18C185.487 170.18 184.971 169.988 184.563 169.604C184.179 169.22 183.987 168.716 183.987 168.092V167.3C183.579 168.236 182.931 168.968 182.043 169.496C181.179 170.024 180.171 170.288 179.019 170.288C177.843 170.288 176.775 170.048 175.814 169.568C174.855 169.088 174.099 168.428 173.547 167.588C172.995 166.748 172.719 165.812 172.719 164.78C172.719 163.484 173.043 162.464 173.691 161.72C174.363 160.976 175.443 160.436 176.931 160.1C178.419 159.764 180.471 159.596 183.087 159.596H183.987V158.768C183.987 157.592 183.735 156.74 183.231 156.212C182.727 155.66 181.911 155.384 180.783 155.384C180.087 155.384 179.379 155.492 178.659 155.708C177.939 155.9 177.087 156.188 176.103 156.572C175.479 156.884 175.023 157.04 174.735 157.04C174.303 157.04 173.943 156.884 173.655 156.572C173.391 156.26 173.259 155.852 173.259 155.348C173.259 154.94 173.355 154.592 173.547 154.304C173.763 153.992 174.111 153.704 174.591 153.44C175.431 152.984 176.427 152.624 177.579 152.36C178.755 152.096 179.907 151.964 181.035 151.964ZM179.919 167.048C181.119 167.048 182.091 166.652 182.835 165.86C183.603 165.044 183.987 164 183.987 162.728V161.972H183.339C181.731 161.972 180.483 162.044 179.595 162.188C178.707 162.332 178.071 162.584 177.687 162.944C177.303 163.304 177.111 163.796 177.111 164.42C177.111 165.188 177.375 165.824 177.903 166.328C178.455 166.808 179.127 167.048 179.919 167.048ZM205.12 153.332C205.312 152.9 205.564 152.588 205.876 152.396C206.212 152.18 206.572 152.072 206.956 152.072C207.508 152.072 208 152.264 208.432 152.648C208.888 153.008 209.116 153.464 209.116 154.016C209.116 154.28 209.044 154.556 208.9 154.844L199.072 175.436C198.664 176.252 198.028 176.66 197.164 176.66C196.612 176.66 196.12 176.48 195.688 176.12C195.28 175.784 195.076 175.352 195.076 174.824C195.076 174.56 195.148 174.26 195.292 173.924L197.74 168.776L191.044 154.844C190.924 154.604 190.864 154.328 190.864 154.016C190.864 153.464 191.092 152.996 191.548 152.612C192.028 152.228 192.568 152.036 193.168 152.036C193.576 152.036 193.948 152.144 194.284 152.36C194.62 152.552 194.884 152.864 195.076 153.296L200.116 164.42L205.12 153.332ZM230.711 166.868C231.911 166.94 232.511 167.48 232.511 168.488C232.511 169.064 232.271 169.508 231.791 169.82C231.335 170.108 230.675 170.228 229.811 170.18L228.839 170.108C224.807 169.82 222.791 167.66 222.791 163.628V155.78H220.991C220.343 155.78 219.839 155.636 219.479 155.348C219.143 155.06 218.975 154.64 218.975 154.088C218.975 153.536 219.143 153.116 219.479 152.828C219.839 152.54 220.343 152.396 220.991 152.396H222.791V149.084C222.791 148.436 222.995 147.92 223.403 147.536C223.811 147.152 224.363 146.96 225.059 146.96C225.731 146.96 226.271 147.152 226.679 147.536C227.087 147.92 227.291 148.436 227.291 149.084V152.396H230.351C230.999 152.396 231.491 152.54 231.827 152.828C232.187 153.116 232.367 153.536 232.367 154.088C232.367 154.64 232.187 155.06 231.827 155.348C231.491 155.636 230.999 155.78 230.351 155.78H227.291V163.952C227.291 165.728 228.107 166.676 229.739 166.796L230.711 166.868ZM242.884 170.288C241.084 170.288 239.5 169.916 238.132 169.172C236.788 168.428 235.744 167.36 235 165.968C234.256 164.576 233.884 162.956 233.884 161.108C233.884 159.26 234.256 157.652 235 156.284C235.744 154.892 236.788 153.824 238.132 153.08C239.5 152.336 241.084 151.964 242.884 151.964C244.684 151.964 246.256 152.336 247.6 153.08C248.968 153.824 250.012 154.892 250.732 156.284C251.476 157.652 251.848 159.26 251.848 161.108C251.848 162.956 251.476 164.576 250.732 165.968C250.012 167.36 248.968 168.428 247.6 169.172C246.256 169.916 244.684 170.288 242.884 170.288ZM242.848 166.796C244.312 166.796 245.428 166.316 246.196 165.356C246.964 164.396 247.348 162.98 247.348 161.108C247.348 159.26 246.964 157.856 246.196 156.896C245.428 155.912 244.324 155.42 242.884 155.42C241.444 155.42 240.328 155.912 239.536 156.896C238.768 157.856 238.384 159.26 238.384 161.108C238.384 162.98 238.768 164.396 239.536 165.356C240.304 166.316 241.408 166.796 242.848 166.796ZM280.24 152.036C280.912 152.036 281.452 152.228 281.86 152.612C282.268 152.996 282.472 153.512 282.472 154.16V168.38C282.472 171.14 281.704 173.228 280.168 174.644C278.632 176.06 276.364 176.768 273.364 176.768C270.748 176.768 268.564 176.276 266.812 175.292C265.924 174.764 265.48 174.128 265.48 173.384C265.48 172.856 265.6 172.436 265.84 172.124C266.104 171.812 266.44 171.656 266.848 171.656C267.064 171.656 267.328 171.704 267.64 171.8C267.952 171.92 268.276 172.052 268.612 172.196C269.476 172.556 270.244 172.832 270.916 173.024C271.612 173.216 272.404 173.312 273.292 173.312C276.436 173.312 278.008 171.776 278.008 168.704V166.4C277.48 167.384 276.712 168.152 275.704 168.704C274.696 169.232 273.544 169.496 272.248 169.496C270.712 169.496 269.344 169.136 268.144 168.416C266.968 167.672 266.044 166.64 265.372 165.32C264.7 164 264.364 162.476 264.364 160.748C264.364 159.02 264.688 157.496 265.336 156.176C266.008 154.832 266.944 153.8 268.144 153.08C269.344 152.336 270.712 151.964 272.248 151.964C273.544 151.964 274.696 152.24 275.704 152.792C276.712 153.32 277.48 154.076 278.008 155.06V154.124C278.008 153.5 278.212 152.996 278.62 152.612C279.028 152.228 279.568 152.036 280.24 152.036ZM273.436 166.004C274.876 166.004 275.992 165.536 276.784 164.6C277.6 163.664 278.008 162.38 278.008 160.748C278.008 159.092 277.6 157.796 276.784 156.86C275.992 155.924 274.876 155.456 273.436 155.456C272.02 155.456 270.904 155.924 270.088 156.86C269.272 157.796 268.864 159.092 268.864 160.748C268.864 162.38 269.272 163.664 270.088 164.6C270.904 165.536 272.02 166.004 273.436 166.004ZM295.161 170.288C293.361 170.288 291.777 169.916 290.409 169.172C289.065 168.428 288.021 167.36 287.277 165.968C286.533 164.576 286.161 162.956 286.161 161.108C286.161 159.26 286.533 157.652 287.277 156.284C288.021 154.892 289.065 153.824 290.409 153.08C291.777 152.336 293.361 151.964 295.161 151.964C296.961 151.964 298.533 152.336 299.877 153.08C301.245 153.824 302.289 154.892 303.009 156.284C303.753 157.652 304.125 159.26 304.125 161.108C304.125 162.956 303.753 164.576 303.009 165.968C302.289 167.36 301.245 168.428 299.877 169.172C298.533 169.916 296.961 170.288 295.161 170.288ZM295.125 166.796C296.589 166.796 297.705 166.316 298.473 165.356C299.241 164.396 299.625 162.98 299.625 161.108C299.625 159.26 299.241 157.856 298.473 156.896C297.705 155.912 296.601 155.42 295.161 155.42C293.721 155.42 292.605 155.912 291.813 156.896C291.045 157.856 290.661 159.26 290.661 161.108C290.661 162.98 291.045 164.396 291.813 165.356C292.581 166.316 293.685 166.796 295.125 166.796ZM309.64 170.18C309.064 170.18 308.584 170 308.2 169.64C307.816 169.256 307.624 168.764 307.624 168.164C307.624 167.564 307.816 167.072 308.2 166.688C308.584 166.304 309.064 166.112 309.64 166.112C310.192 166.112 310.648 166.304 311.008 166.688C311.392 167.072 311.584 167.564 311.584 168.164C311.584 168.764 311.392 169.256 311.008 169.64C310.648 170 310.192 170.18 309.64 170.18ZM315.896 144.44C316.496 144.44 316.976 144.68 317.336 145.16C317.72 145.616 317.912 146.312 317.912 147.248C317.912 149.144 317.3 150.74 316.076 152.036C315.836 152.276 315.572 152.396 315.284 152.396C315.02 152.396 314.792 152.312 314.6 152.144C314.408 151.952 314.312 151.736 314.312 151.496C314.312 151.232 314.408 151.004 314.6 150.812C315.224 150.188 315.62 149.396 315.788 148.436C315.26 148.388 314.816 148.184 314.456 147.824C314.12 147.464 313.952 147.008 313.952 146.456C313.952 145.856 314.132 145.376 314.492 145.016C314.876 144.632 315.344 144.44 315.896 144.44ZM321.872 144.44C322.472 144.44 322.952 144.68 323.312 145.16C323.696 145.616 323.888 146.312 323.888 147.248C323.888 149.144 323.276 150.74 322.052 152.036C321.812 152.276 321.548 152.396 321.26 152.396C320.996 152.396 320.768 152.312 320.576 152.144C320.384 151.952 320.288 151.736 320.288 151.496C320.288 151.232 320.384 151.004 320.576 150.812C321.2 150.188 321.596 149.396 321.764 148.436C321.236 148.388 320.792 148.184 320.432 147.824C320.096 147.464 319.928 147.008 319.928 146.456C319.928 145.856 320.108 145.376 320.468 145.016C320.852 144.632 321.32 144.44 321.872 144.44Z" fill="white"/>
</svg>
