<svg width="520" height="385" viewBox="0 0 520 385" fill="none" xmlns="http://www.w3.org/2000/svg">
<path d="M59.8816 49.4953C-8.80678 114.736 10.3225 190.724 33.7962 228.761C57.2698 266.799 40.9036 301.062 40.9036 301.062L-0.000131886 366.774L97.3468 303.045C97.3468 303.045 131.075 289.992 154.853 293.658C228.331 304.986 367.816 339.67 433.653 303.457C520.797 255.525 539.984 150.483 476.931 72.6873C417.728 -0.359517 128.57 -15.7457 59.8816 49.4953Z" fill="#2F3E50"/>
<path d="M123.284 72.4C123.812 72.448 124.244 72.652 124.58 73.012C124.916 73.372 125.084 73.828 125.084 74.38C125.084 74.98 124.904 75.472 124.544 75.856C124.184 76.216 123.728 76.396 123.176 76.396C122.552 76.396 122.048 76.168 121.664 75.712C121.304 75.256 121.124 74.548 121.124 73.588C121.124 71.74 121.736 70.144 122.96 68.8C123.2 68.56 123.476 68.44 123.788 68.44C124.052 68.44 124.28 68.536 124.472 68.728C124.664 68.896 124.76 69.1 124.76 69.34C124.76 69.604 124.664 69.832 124.472 70.024C123.848 70.672 123.452 71.464 123.284 72.4ZM129.26 72.4C129.788 72.448 130.22 72.652 130.556 73.012C130.892 73.372 131.06 73.828 131.06 74.38C131.06 74.98 130.88 75.472 130.52 75.856C130.16 76.216 129.704 76.396 129.152 76.396C128.528 76.396 128.024 76.168 127.64 75.712C127.28 75.256 127.1 74.548 127.1 73.588C127.1 71.74 127.712 70.144 128.936 68.8C129.176 68.56 129.452 68.44 129.764 68.44C130.028 68.44 130.256 68.536 130.448 68.728C130.64 68.896 130.736 69.1 130.736 69.34C130.736 69.604 130.64 69.832 130.448 70.024C129.824 70.672 129.428 71.464 129.26 72.4ZM137.811 94.18C137.355 94.18 136.995 94.048 136.731 93.784C136.467 93.496 136.335 93.124 136.335 92.668V70.06C136.335 69.628 136.467 69.28 136.731 69.016C137.019 68.752 137.391 68.62 137.847 68.62H150.951C151.383 68.62 151.719 68.728 151.959 68.944C152.199 69.16 152.319 69.472 152.319 69.88C152.319 70.264 152.199 70.564 151.959 70.78C151.719 70.996 151.383 71.104 150.951 71.104H139.251V79.852H150.231C150.663 79.852 150.999 79.96 151.239 80.176C151.479 80.392 151.599 80.704 151.599 81.112C151.599 81.496 151.479 81.796 151.239 82.012C150.999 82.228 150.663 82.336 150.231 82.336H139.251V92.668C139.251 93.124 139.119 93.496 138.855 93.784C138.615 94.048 138.267 94.18 137.811 94.18ZM162.863 94.252C161.207 94.252 159.743 93.88 158.471 93.136C157.223 92.392 156.251 91.336 155.555 89.968C154.883 88.576 154.547 86.968 154.547 85.144C154.547 83.32 154.883 81.724 155.555 80.356C156.251 78.964 157.223 77.896 158.471 77.152C159.743 76.408 161.207 76.036 162.863 76.036C164.519 76.036 165.983 76.408 167.255 77.152C168.527 77.896 169.499 78.964 170.171 80.356C170.867 81.724 171.215 83.32 171.215 85.144C171.215 86.968 170.867 88.576 170.171 89.968C169.499 91.336 168.527 92.392 167.255 93.136C165.983 93.88 164.519 94.252 162.863 94.252ZM162.863 91.84C164.591 91.84 165.911 91.276 166.823 90.148C167.759 88.996 168.227 87.328 168.227 85.144C168.227 83.008 167.759 81.364 166.823 80.212C165.887 79.036 164.567 78.448 162.863 78.448C161.159 78.448 159.839 79.036 158.903 80.212C157.967 81.364 157.499 83.008 157.499 85.144C157.499 87.304 157.955 88.96 158.867 90.112C159.803 91.264 161.135 91.84 162.863 91.84ZM182.795 94.252C181.163 94.252 179.711 93.88 178.439 93.136C177.191 92.392 176.219 91.336 175.523 89.968C174.851 88.6 174.515 87.016 174.515 85.216C174.515 83.416 174.863 81.82 175.559 80.428C176.279 79.036 177.275 77.956 178.547 77.188C179.819 76.42 181.283 76.036 182.939 76.036C183.851 76.036 184.751 76.168 185.639 76.432C186.551 76.672 187.343 77.032 188.015 77.512C188.447 77.8 188.747 78.088 188.915 78.376C189.107 78.64 189.203 78.94 189.203 79.276C189.203 79.612 189.107 79.888 188.915 80.104C188.747 80.32 188.519 80.428 188.231 80.428C188.063 80.428 187.883 80.38 187.691 80.284C187.499 80.188 187.331 80.092 187.187 79.996C187.067 79.9 186.983 79.84 186.935 79.816C186.311 79.408 185.711 79.084 185.135 78.844C184.583 78.604 183.899 78.484 183.083 78.484C181.331 78.484 179.963 79.084 178.979 80.284C178.019 81.46 177.539 83.104 177.539 85.216C177.539 87.328 178.019 88.96 178.979 90.112C179.963 91.264 181.331 91.84 183.083 91.84C183.899 91.84 184.595 91.72 185.171 91.48C185.771 91.24 186.371 90.916 186.971 90.508C187.235 90.34 187.487 90.196 187.727 90.076C187.967 89.956 188.171 89.896 188.339 89.896C188.603 89.896 188.819 90.004 188.987 90.22C189.179 90.436 189.275 90.712 189.275 91.048C189.275 91.36 189.191 91.648 189.023 91.912C188.855 92.152 188.543 92.428 188.087 92.74C187.415 93.196 186.599 93.568 185.639 93.856C184.703 94.12 183.755 94.252 182.795 94.252ZM206.106 76.108C206.562 76.108 206.91 76.24 207.15 76.504C207.414 76.768 207.546 77.116 207.546 77.548V92.776C207.546 93.184 207.414 93.52 207.15 93.784C206.91 94.048 206.562 94.18 206.106 94.18C205.674 94.18 205.326 94.06 205.062 93.82C204.822 93.556 204.702 93.22 204.702 92.812V91.012C204.15 92.068 203.37 92.872 202.362 93.424C201.378 93.976 200.262 94.252 199.014 94.252C196.926 94.252 195.354 93.676 194.298 92.524C193.242 91.348 192.714 89.62 192.714 87.34V77.548C192.714 77.116 192.846 76.768 193.11 76.504C193.374 76.24 193.734 76.108 194.19 76.108C194.646 76.108 194.994 76.24 195.234 76.504C195.498 76.768 195.63 77.116 195.63 77.548V87.268C195.63 88.828 195.942 89.98 196.566 90.724C197.19 91.444 198.174 91.804 199.518 91.804C201.054 91.804 202.29 91.312 203.226 90.328C204.162 89.32 204.63 88 204.63 86.368V77.548C204.63 77.116 204.762 76.768 205.026 76.504C205.29 76.24 205.65 76.108 206.106 76.108ZM218.87 94.252C217.766 94.252 216.71 94.12 215.702 93.856C214.718 93.592 213.842 93.22 213.074 92.74C212.642 92.452 212.33 92.188 212.138 91.948C211.97 91.684 211.886 91.372 211.886 91.012C211.886 90.7 211.97 90.448 212.138 90.256C212.33 90.04 212.57 89.932 212.858 89.932C213.146 89.932 213.566 90.112 214.118 90.472C214.838 90.904 215.546 91.252 216.242 91.516C216.962 91.756 217.85 91.876 218.906 91.876C220.202 91.876 221.21 91.648 221.93 91.192C222.65 90.736 223.01 90.076 223.01 89.212C223.01 88.684 222.878 88.264 222.614 87.952C222.35 87.616 221.894 87.328 221.246 87.088C220.598 86.824 219.65 86.56 218.402 86.296C216.29 85.84 214.778 85.228 213.866 84.46C212.954 83.692 212.498 82.648 212.498 81.328C212.498 80.296 212.786 79.384 213.362 78.592C213.938 77.8 214.73 77.176 215.738 76.72C216.77 76.264 217.934 76.036 219.23 76.036C220.166 76.036 221.066 76.168 221.93 76.432C222.818 76.672 223.598 77.02 224.27 77.476C225.086 78.052 225.494 78.652 225.494 79.276C225.494 79.588 225.398 79.852 225.206 80.068C225.014 80.284 224.786 80.392 224.522 80.392C224.234 80.392 223.802 80.188 223.226 79.78C222.554 79.348 221.918 79.012 221.318 78.772C220.718 78.532 219.974 78.412 219.086 78.412C217.958 78.412 217.046 78.664 216.35 79.168C215.678 79.672 215.342 80.344 215.342 81.184C215.342 81.712 215.462 82.144 215.702 82.48C215.966 82.792 216.386 83.08 216.962 83.344C217.562 83.584 218.414 83.824 219.518 84.064C221.15 84.424 222.41 84.82 223.298 85.252C224.21 85.684 224.858 86.212 225.242 86.836C225.626 87.46 225.818 88.252 225.818 89.212C225.818 90.724 225.182 91.948 223.91 92.884C222.638 93.796 220.958 94.252 218.87 94.252ZM259.056 76.036C262.944 76.036 264.888 78.352 264.888 82.984V92.74C264.888 93.196 264.756 93.556 264.492 93.82C264.228 94.06 263.88 94.18 263.448 94.18C263.016 94.18 262.656 94.06 262.368 93.82C262.104 93.556 261.972 93.196 261.972 92.74V83.056C261.972 81.448 261.684 80.284 261.108 79.564C260.532 78.844 259.632 78.484 258.408 78.484C256.944 78.484 255.792 78.976 254.952 79.96C254.112 80.944 253.692 82.276 253.692 83.956V92.74C253.692 93.196 253.548 93.556 253.26 93.82C252.996 94.06 252.648 94.18 252.216 94.18C251.784 94.18 251.436 94.06 251.172 93.82C250.908 93.556 250.776 93.196 250.776 92.74V83.056C250.776 81.448 250.488 80.284 249.912 79.564C249.336 78.844 248.424 78.484 247.176 78.484C245.736 78.484 244.584 78.976 243.72 79.96C242.88 80.944 242.46 82.276 242.46 83.956V92.74C242.46 93.196 242.328 93.556 242.064 93.82C241.8 94.06 241.452 94.18 241.02 94.18C240.588 94.18 240.228 94.06 239.94 93.82C239.676 93.556 239.544 93.196 239.544 92.74V77.548C239.544 77.116 239.676 76.768 239.94 76.504C240.228 76.24 240.588 76.108 241.02 76.108C241.428 76.108 241.764 76.24 242.028 76.504C242.292 76.744 242.424 77.08 242.424 77.512V79.24C242.952 78.208 243.684 77.416 244.62 76.864C245.556 76.312 246.636 76.036 247.86 76.036C250.596 76.036 252.384 77.188 253.224 79.492C253.728 78.436 254.496 77.596 255.528 76.972C256.56 76.348 257.736 76.036 259.056 76.036ZM277.472 94.252C275.816 94.252 274.352 93.88 273.08 93.136C271.832 92.392 270.86 91.336 270.164 89.968C269.492 88.576 269.156 86.968 269.156 85.144C269.156 83.32 269.492 81.724 270.164 80.356C270.86 78.964 271.832 77.896 273.08 77.152C274.352 76.408 275.816 76.036 277.472 76.036C279.128 76.036 280.592 76.408 281.864 77.152C283.136 77.896 284.108 78.964 284.78 80.356C285.476 81.724 285.824 83.32 285.824 85.144C285.824 86.968 285.476 88.576 284.78 89.968C284.108 91.336 283.136 92.392 281.864 93.136C280.592 93.88 279.128 94.252 277.472 94.252ZM277.472 91.84C279.2 91.84 280.52 91.276 281.432 90.148C282.368 88.996 282.836 87.328 282.836 85.144C282.836 83.008 282.368 81.364 281.432 80.212C280.496 79.036 279.176 78.448 277.472 78.448C275.768 78.448 274.448 79.036 273.512 80.212C272.576 81.364 272.108 83.008 272.108 85.144C272.108 87.304 272.564 88.96 273.476 90.112C274.412 91.264 275.744 91.84 277.472 91.84ZM298.845 76.108C299.853 76.036 300.357 76.444 300.357 77.332C300.357 77.716 300.249 78.028 300.033 78.268C299.817 78.484 299.445 78.616 298.917 78.664L297.837 78.772C296.229 78.916 295.029 79.492 294.237 80.5C293.469 81.484 293.085 82.648 293.085 83.992V92.74C293.085 93.22 292.953 93.58 292.689 93.82C292.425 94.06 292.077 94.18 291.645 94.18C291.213 94.18 290.853 94.06 290.565 93.82C290.301 93.556 290.169 93.196 290.169 92.74V77.548C290.169 77.092 290.313 76.744 290.601 76.504C290.889 76.24 291.237 76.108 291.645 76.108C292.029 76.108 292.353 76.24 292.617 76.504C292.881 76.744 293.013 77.08 293.013 77.512V79.528C293.517 78.472 294.225 77.668 295.137 77.116C296.073 76.564 297.141 76.24 298.341 76.144L298.845 76.108ZM316.081 89.932C316.345 89.932 316.573 90.04 316.765 90.256C316.957 90.472 317.053 90.748 317.053 91.084C317.053 91.684 316.633 92.236 315.793 92.74C314.929 93.244 314.017 93.628 313.057 93.892C312.097 94.132 311.161 94.252 310.249 94.252C307.537 94.252 305.389 93.448 303.805 91.84C302.245 90.232 301.465 88.012 301.465 85.18C301.465 83.38 301.813 81.796 302.509 80.428C303.205 79.036 304.177 77.956 305.425 77.188C306.697 76.42 308.137 76.036 309.745 76.036C312.025 76.036 313.837 76.78 315.181 78.268C316.525 79.756 317.197 81.772 317.197 84.316C317.197 84.796 317.101 85.144 316.909 85.36C316.717 85.576 316.405 85.684 315.973 85.684H304.381C304.597 89.812 306.553 91.876 310.249 91.876C311.185 91.876 311.989 91.756 312.661 91.516C313.333 91.252 314.053 90.904 314.821 90.472C315.445 90.112 315.865 89.932 316.081 89.932ZM309.781 78.304C308.245 78.304 307.009 78.784 306.073 79.744C305.161 80.704 304.621 82.06 304.453 83.812H314.641C314.593 82.036 314.149 80.68 313.309 79.744C312.469 78.784 311.293 78.304 309.781 78.304ZM338.046 94.252C336.39 94.252 334.926 93.88 333.654 93.136C332.406 92.392 331.434 91.336 330.738 89.968C330.066 88.576 329.73 86.968 329.73 85.144C329.73 83.32 330.066 81.724 330.738 80.356C331.434 78.964 332.406 77.896 333.654 77.152C334.926 76.408 336.39 76.036 338.046 76.036C339.702 76.036 341.166 76.408 342.438 77.152C343.71 77.896 344.682 78.964 345.354 80.356C346.05 81.724 346.398 83.32 346.398 85.144C346.398 86.968 346.05 88.576 345.354 89.968C344.682 91.336 343.71 92.392 342.438 93.136C341.166 93.88 339.702 94.252 338.046 94.252ZM338.046 91.84C339.774 91.84 341.094 91.276 342.006 90.148C342.942 88.996 343.41 87.328 343.41 85.144C343.41 83.008 342.942 81.364 342.006 80.212C341.07 79.036 339.75 78.448 338.046 78.448C336.342 78.448 335.022 79.036 334.086 80.212C333.15 81.364 332.682 83.008 332.682 85.144C332.682 87.304 333.138 88.96 334.05 90.112C334.986 91.264 336.318 91.84 338.046 91.84ZM359.563 76.036C363.763 76.036 365.863 78.352 365.863 82.984V92.74C365.863 93.196 365.731 93.556 365.467 93.82C365.227 94.06 364.879 94.18 364.423 94.18C363.967 94.18 363.607 94.06 363.343 93.82C363.079 93.556 362.947 93.196 362.947 92.74V83.164C362.947 81.532 362.623 80.344 361.975 79.6C361.351 78.856 360.343 78.484 358.951 78.484C357.343 78.484 356.059 78.976 355.099 79.96C354.139 80.944 353.659 82.276 353.659 83.956V92.74C353.659 93.196 353.527 93.556 353.263 93.82C353.023 94.06 352.675 94.18 352.219 94.18C351.763 94.18 351.403 94.06 351.139 93.82C350.875 93.556 350.743 93.196 350.743 92.74V77.548C350.743 77.116 350.875 76.768 351.139 76.504C351.403 76.24 351.763 76.108 352.219 76.108C352.651 76.108 352.987 76.24 353.227 76.504C353.491 76.768 353.623 77.104 353.623 77.512V79.348C354.199 78.268 355.003 77.452 356.035 76.9C357.067 76.324 358.243 76.036 359.563 76.036ZM129.8 140.876C130.64 140.948 131.06 141.332 131.06 142.028C131.06 142.436 130.904 142.748 130.592 142.964C130.304 143.156 129.86 143.228 129.26 143.18L128.288 143.108C126.368 142.964 124.952 142.388 124.04 141.38C123.128 140.372 122.672 138.848 122.672 136.808V127.772H120.26C119.852 127.772 119.528 127.676 119.288 127.484C119.072 127.268 118.964 126.992 118.964 126.656C118.964 126.296 119.072 126.008 119.288 125.792C119.528 125.576 119.852 125.468 120.26 125.468H122.672V121.4C122.672 120.944 122.804 120.596 123.068 120.356C123.332 120.092 123.692 119.96 124.148 119.96C124.58 119.96 124.928 120.092 125.192 120.356C125.456 120.596 125.588 120.944 125.588 121.4V125.468H129.584C129.968 125.468 130.268 125.576 130.484 125.792C130.724 126.008 130.844 126.296 130.844 126.656C130.844 126.992 130.724 127.268 130.484 127.484C130.268 127.676 129.968 127.772 129.584 127.772H125.588V136.952C125.588 138.272 125.852 139.232 126.38 139.832C126.932 140.408 127.748 140.732 128.828 140.804L129.8 140.876ZM142.79 125.036C144.854 125.036 146.414 125.624 147.47 126.8C148.526 127.952 149.054 129.68 149.054 131.984V141.74C149.054 142.196 148.922 142.556 148.658 142.82C148.394 143.06 148.046 143.18 147.614 143.18C147.158 143.18 146.798 143.06 146.534 142.82C146.27 142.556 146.138 142.196 146.138 141.74V132.056C146.138 130.496 145.814 129.344 145.166 128.6C144.542 127.856 143.534 127.484 142.142 127.484C140.534 127.484 139.25 127.976 138.29 128.96C137.33 129.944 136.85 131.276 136.85 132.956V141.74C136.85 142.196 136.718 142.556 136.454 142.82C136.214 143.06 135.866 143.18 135.41 143.18C134.954 143.18 134.594 143.06 134.33 142.82C134.066 142.556 133.934 142.196 133.934 141.74V118.844C133.934 118.436 134.066 118.1 134.33 117.836C134.618 117.572 134.978 117.44 135.41 117.44C135.866 117.44 136.214 117.572 136.454 117.836C136.718 118.076 136.85 118.412 136.85 118.844V128.276C137.426 127.22 138.23 126.416 139.262 125.864C140.294 125.312 141.47 125.036 142.79 125.036ZM155.871 143.18C155.439 143.18 155.079 143.06 154.791 142.82C154.527 142.556 154.395 142.196 154.395 141.74V126.548C154.395 126.092 154.527 125.744 154.791 125.504C155.079 125.24 155.439 125.108 155.871 125.108C156.303 125.108 156.651 125.24 156.915 125.504C157.179 125.744 157.311 126.092 157.311 126.548V141.74C157.311 142.22 157.179 142.58 156.915 142.82C156.651 143.06 156.303 143.18 155.871 143.18ZM155.871 121.328C155.295 121.328 154.827 121.16 154.467 120.824C154.107 120.488 153.927 120.044 153.927 119.492C153.927 118.964 154.107 118.532 154.467 118.196C154.827 117.86 155.295 117.692 155.871 117.692C156.447 117.692 156.915 117.86 157.275 118.196C157.635 118.532 157.815 118.964 157.815 119.492C157.815 120.044 157.635 120.488 157.275 120.824C156.915 121.16 156.447 121.328 155.871 121.328ZM171.583 125.036C175.783 125.036 177.883 127.352 177.883 131.984V141.74C177.883 142.196 177.751 142.556 177.487 142.82C177.247 143.06 176.899 143.18 176.443 143.18C175.987 143.18 175.627 143.06 175.363 142.82C175.099 142.556 174.967 142.196 174.967 141.74V132.164C174.967 130.532 174.643 129.344 173.995 128.6C173.371 127.856 172.363 127.484 170.971 127.484C169.363 127.484 168.079 127.976 167.119 128.96C166.159 129.944 165.679 131.276 165.679 132.956V141.74C165.679 142.196 165.547 142.556 165.283 142.82C165.043 143.06 164.695 143.18 164.239 143.18C163.783 143.18 163.423 143.06 163.159 142.82C162.895 142.556 162.763 142.196 162.763 141.74V126.548C162.763 126.116 162.895 125.768 163.159 125.504C163.423 125.24 163.783 125.108 164.239 125.108C164.671 125.108 165.007 125.24 165.247 125.504C165.511 125.768 165.643 126.104 165.643 126.512V128.348C166.219 127.268 167.023 126.452 168.055 125.9C169.087 125.324 170.263 125.036 171.583 125.036ZM197.443 125.108C197.899 125.108 198.259 125.24 198.523 125.504C198.787 125.768 198.919 126.116 198.919 126.548V141.812C198.919 144.428 198.247 146.396 196.903 147.716C195.559 149.06 193.567 149.732 190.927 149.732C188.359 149.732 186.223 149.228 184.519 148.22C183.655 147.74 183.223 147.188 183.223 146.564C183.223 146.228 183.307 145.952 183.475 145.736C183.667 145.52 183.907 145.412 184.195 145.412C184.435 145.412 184.867 145.58 185.491 145.916C186.331 146.348 187.159 146.696 187.975 146.96C188.791 147.224 189.763 147.356 190.891 147.356C192.595 147.356 193.879 146.9 194.743 145.988C195.607 145.1 196.039 143.792 196.039 142.064V138.968C195.535 140.096 194.755 140.96 193.699 141.56C192.667 142.16 191.443 142.46 190.027 142.46C188.491 142.46 187.123 142.1 185.923 141.38C184.747 140.66 183.823 139.64 183.151 138.32C182.503 137 182.179 135.476 182.179 133.748C182.179 132.02 182.503 130.496 183.151 129.176C183.823 127.856 184.747 126.836 185.923 126.116C187.123 125.396 188.491 125.036 190.027 125.036C191.419 125.036 192.631 125.336 193.663 125.936C194.695 126.536 195.475 127.388 196.003 128.492V126.548C196.003 126.116 196.123 125.768 196.363 125.504C196.627 125.24 196.987 125.108 197.443 125.108ZM190.603 140.048C192.283 140.048 193.603 139.496 194.563 138.392C195.523 137.264 196.003 135.716 196.003 133.748C196.003 131.804 195.523 130.28 194.563 129.176C193.627 128.048 192.307 127.484 190.603 127.484C188.899 127.484 187.555 128.048 186.571 129.176C185.611 130.28 185.131 131.804 185.131 133.748C185.131 135.716 185.611 137.264 186.571 138.392C187.555 139.496 188.899 140.048 190.603 140.048ZM210.221 143.252C209.117 143.252 208.061 143.12 207.053 142.856C206.069 142.592 205.193 142.22 204.425 141.74C203.993 141.452 203.681 141.188 203.489 140.948C203.321 140.684 203.237 140.372 203.237 140.012C203.237 139.7 203.321 139.448 203.489 139.256C203.681 139.04 203.921 138.932 204.209 138.932C204.497 138.932 204.917 139.112 205.469 139.472C206.189 139.904 206.897 140.252 207.593 140.516C208.313 140.756 209.201 140.876 210.257 140.876C211.553 140.876 212.561 140.648 213.281 140.192C214.001 139.736 214.361 139.076 214.361 138.212C214.361 137.684 214.229 137.264 213.965 136.952C213.701 136.616 213.245 136.328 212.597 136.088C211.949 135.824 211.001 135.56 209.753 135.296C207.641 134.84 206.129 134.228 205.217 133.46C204.305 132.692 203.849 131.648 203.849 130.328C203.849 129.296 204.137 128.384 204.713 127.592C205.289 126.8 206.081 126.176 207.089 125.72C208.121 125.264 209.285 125.036 210.581 125.036C211.517 125.036 212.417 125.168 213.281 125.432C214.169 125.672 214.949 126.02 215.621 126.476C216.437 127.052 216.845 127.652 216.845 128.276C216.845 128.588 216.749 128.852 216.557 129.068C216.365 129.284 216.137 129.392 215.873 129.392C215.585 129.392 215.153 129.188 214.577 128.78C213.905 128.348 213.269 128.012 212.669 127.772C212.069 127.532 211.325 127.412 210.437 127.412C209.309 127.412 208.397 127.664 207.701 128.168C207.029 128.672 206.693 129.344 206.693 130.184C206.693 130.712 206.813 131.144 207.053 131.48C207.317 131.792 207.737 132.08 208.313 132.344C208.913 132.584 209.765 132.824 210.869 133.064C212.501 133.424 213.761 133.82 214.649 134.252C215.561 134.684 216.209 135.212 216.593 135.836C216.977 136.46 217.169 137.252 217.169 138.212C217.169 139.724 216.533 140.948 215.261 141.884C213.989 142.796 212.309 143.252 210.221 143.252ZM232.371 143.18C231.939 143.18 231.579 143.06 231.291 142.82C231.027 142.556 230.895 142.196 230.895 141.74V118.88C230.895 118.424 231.027 118.076 231.291 117.836C231.579 117.572 231.939 117.44 232.371 117.44C232.779 117.44 233.115 117.572 233.379 117.836C233.667 118.076 233.811 118.424 233.811 118.88V141.74C233.811 142.196 233.667 142.556 233.379 142.82C233.115 143.06 232.779 143.18 232.371 143.18ZM240.739 143.18C240.307 143.18 239.947 143.06 239.659 142.82C239.395 142.556 239.263 142.196 239.263 141.74V126.548C239.263 126.092 239.395 125.744 239.659 125.504C239.947 125.24 240.307 125.108 240.739 125.108C241.171 125.108 241.519 125.24 241.783 125.504C242.047 125.744 242.179 126.092 242.179 126.548V141.74C242.179 142.22 242.047 142.58 241.783 142.82C241.519 143.06 241.171 143.18 240.739 143.18ZM240.739 121.328C240.163 121.328 239.695 121.16 239.335 120.824C238.975 120.488 238.795 120.044 238.795 119.492C238.795 118.964 238.975 118.532 239.335 118.196C239.695 117.86 240.163 117.692 240.739 117.692C241.315 117.692 241.783 117.86 242.143 118.196C242.503 118.532 242.683 118.964 242.683 119.492C242.683 120.044 242.503 120.488 242.143 120.824C241.783 121.16 241.315 121.328 240.739 121.328ZM261.634 140.696C262.018 141.056 262.21 141.44 262.21 141.848C262.21 142.208 262.078 142.52 261.814 142.784C261.574 143.048 261.274 143.18 260.914 143.18C260.602 143.18 260.278 143.036 259.942 142.748L250.546 134.648V141.74C250.546 142.196 250.402 142.556 250.114 142.82C249.85 143.06 249.514 143.18 249.106 143.18C248.674 143.18 248.314 143.06 248.026 142.82C247.762 142.556 247.63 142.196 247.63 141.74V118.88C247.63 118.424 247.762 118.076 248.026 117.836C248.314 117.572 248.674 117.44 249.106 117.44C249.514 117.44 249.85 117.572 250.114 117.836C250.402 118.076 250.546 118.424 250.546 118.88V133.496L259.15 125.612C259.438 125.324 259.762 125.18 260.122 125.18C260.482 125.18 260.794 125.312 261.058 125.576C261.322 125.84 261.454 126.152 261.454 126.512C261.454 126.92 261.286 127.28 260.95 127.592L253.858 133.928L261.634 140.696ZM278.885 138.932C279.149 138.932 279.377 139.04 279.569 139.256C279.761 139.472 279.857 139.748 279.857 140.084C279.857 140.684 279.437 141.236 278.597 141.74C277.733 142.244 276.821 142.628 275.861 142.892C274.901 143.132 273.965 143.252 273.053 143.252C270.341 143.252 268.193 142.448 266.609 140.84C265.049 139.232 264.269 137.012 264.269 134.18C264.269 132.38 264.617 130.796 265.313 129.428C266.009 128.036 266.981 126.956 268.229 126.188C269.501 125.42 270.941 125.036 272.549 125.036C274.829 125.036 276.641 125.78 277.985 127.268C279.329 128.756 280.001 130.772 280.001 133.316C280.001 133.796 279.905 134.144 279.713 134.36C279.521 134.576 279.209 134.684 278.777 134.684H267.185C267.401 138.812 269.357 140.876 273.053 140.876C273.989 140.876 274.793 140.756 275.465 140.516C276.137 140.252 276.857 139.904 277.625 139.472C278.249 139.112 278.669 138.932 278.885 138.932ZM272.585 127.304C271.049 127.304 269.813 127.784 268.877 128.744C267.965 129.704 267.425 131.06 267.257 132.812H277.445C277.397 131.036 276.953 129.68 276.113 128.744C275.273 127.784 274.097 127.304 272.585 127.304ZM128.972 173.964C131.42 173.964 133.232 174.576 134.408 175.8C135.608 177 136.208 178.836 136.208 181.308V190.092C136.208 190.74 136.016 191.256 135.632 191.64C135.248 192 134.72 192.18 134.048 192.18C133.424 192.18 132.908 191.988 132.5 191.604C132.116 191.22 131.924 190.716 131.924 190.092V189.3C131.516 190.236 130.868 190.968 129.98 191.496C129.116 192.024 128.108 192.288 126.956 192.288C125.78 192.288 124.712 192.048 123.752 191.568C122.792 191.088 122.036 190.428 121.484 189.588C120.932 188.748 120.656 187.812 120.656 186.78C120.656 185.484 120.98 184.464 121.628 183.72C122.3 182.976 123.38 182.436 124.868 182.1C126.356 181.764 128.408 181.596 131.024 181.596H131.924V180.768C131.924 179.592 131.672 178.74 131.168 178.212C130.664 177.66 129.848 177.384 128.72 177.384C128.024 177.384 127.316 177.492 126.596 177.708C125.876 177.9 125.024 178.188 124.04 178.572C123.416 178.884 122.96 179.04 122.672 179.04C122.24 179.04 121.88 178.884 121.592 178.572C121.328 178.26 121.196 177.852 121.196 177.348C121.196 176.94 121.292 176.592 121.484 176.304C121.7 175.992 122.048 175.704 122.528 175.44C123.368 174.984 124.364 174.624 125.516 174.36C126.692 174.096 127.844 173.964 128.972 173.964ZM127.856 189.048C129.056 189.048 130.028 188.652 130.772 187.86C131.54 187.044 131.924 186 131.924 184.728V183.972H131.276C129.668 183.972 128.42 184.044 127.532 184.188C126.644 184.332 126.008 184.584 125.624 184.944C125.24 185.304 125.048 185.796 125.048 186.42C125.048 187.188 125.312 187.824 125.84 188.328C126.392 188.808 127.064 189.048 127.856 189.048ZM149.673 169.968C148.569 170.04 147.765 170.376 147.261 170.976C146.757 171.576 146.505 172.44 146.505 173.568V174.396H149.565C150.909 174.396 151.581 174.96 151.581 176.088C151.581 177.216 150.909 177.78 149.565 177.78H146.505V190.056C146.505 190.752 146.289 191.28 145.857 191.64C145.449 192 144.921 192.18 144.273 192.18C143.625 192.18 143.085 192 142.653 191.64C142.221 191.28 142.005 190.752 142.005 190.056V177.78H140.205C138.861 177.78 138.189 177.216 138.189 176.088C138.189 174.96 138.861 174.396 140.205 174.396H142.005V174.144C142.005 171.888 142.593 170.124 143.769 168.852C144.969 167.556 146.649 166.824 148.809 166.656L149.745 166.584C150.705 166.512 151.377 166.62 151.761 166.908C152.169 167.172 152.373 167.592 152.373 168.168C152.373 169.2 151.785 169.776 150.609 169.896L149.673 169.968ZM161.843 188.868C163.043 188.94 163.643 189.48 163.643 190.488C163.643 191.064 163.403 191.508 162.923 191.82C162.467 192.108 161.807 192.228 160.943 192.18L159.971 192.108C155.939 191.82 153.923 189.66 153.923 185.628V177.78H152.123C151.475 177.78 150.971 177.636 150.611 177.348C150.275 177.06 150.107 176.64 150.107 176.088C150.107 175.536 150.275 175.116 150.611 174.828C150.971 174.54 151.475 174.396 152.123 174.396H153.923V171.084C153.923 170.436 154.127 169.92 154.535 169.536C154.943 169.152 155.495 168.96 156.191 168.96C156.863 168.96 157.403 169.152 157.811 169.536C158.219 169.92 158.423 170.436 158.423 171.084V174.396H161.483C162.131 174.396 162.623 174.54 162.959 174.828C163.319 175.116 163.499 175.536 163.499 176.088C163.499 176.64 163.319 177.06 162.959 177.348C162.623 177.636 162.131 177.78 161.483 177.78H158.423V185.952C158.423 187.728 159.239 188.676 160.871 188.796L161.843 188.868ZM179.92 187.176C180.328 187.176 180.652 187.332 180.892 187.644C181.156 187.956 181.288 188.376 181.288 188.904C181.288 189.648 180.844 190.272 179.956 190.776C179.14 191.232 178.216 191.604 177.184 191.892C176.152 192.156 175.168 192.288 174.232 192.288C171.4 192.288 169.156 191.472 167.5 189.84C165.844 188.208 165.016 185.976 165.016 183.144C165.016 181.344 165.376 179.748 166.096 178.356C166.816 176.964 167.824 175.884 169.12 175.116C170.44 174.348 171.928 173.964 173.584 173.964C175.168 173.964 176.548 174.312 177.724 175.008C178.9 175.704 179.812 176.688 180.46 177.96C181.108 179.232 181.432 180.732 181.432 182.46C181.432 183.492 180.976 184.008 180.064 184.008H169.444C169.588 185.664 170.056 186.888 170.848 187.68C171.64 188.448 172.792 188.832 174.304 188.832C175.072 188.832 175.744 188.736 176.32 188.544C176.92 188.352 177.592 188.088 178.336 187.752C179.056 187.368 179.584 187.176 179.92 187.176ZM173.692 177.132C172.468 177.132 171.484 177.516 170.74 178.284C170.02 179.052 169.588 180.156 169.444 181.596H177.58C177.532 180.132 177.172 179.028 176.5 178.284C175.828 177.516 174.892 177.132 173.692 177.132ZM194.941 174.036C195.565 173.988 196.057 174.12 196.417 174.432C196.777 174.744 196.957 175.212 196.957 175.836C196.957 176.484 196.801 176.964 196.489 177.276C196.177 177.588 195.613 177.792 194.797 177.888L193.717 177.996C192.301 178.14 191.257 178.62 190.585 179.436C189.937 180.252 189.613 181.272 189.613 182.496V190.056C189.613 190.752 189.397 191.292 188.965 191.676C188.533 192.036 187.993 192.216 187.345 192.216C186.697 192.216 186.157 192.036 185.725 191.676C185.317 191.292 185.113 190.752 185.113 190.056V176.124C185.113 175.452 185.317 174.936 185.725 174.576C186.157 174.216 186.685 174.036 187.309 174.036C187.933 174.036 188.437 174.216 188.821 174.576C189.205 174.912 189.397 175.404 189.397 176.052V177.492C189.853 176.436 190.525 175.62 191.413 175.044C192.325 174.468 193.333 174.144 194.437 174.072L194.941 174.036ZM200.026 184.152C199.33 184.152 198.802 183.996 198.442 183.684C198.106 183.372 197.938 182.94 197.938 182.388C197.938 181.836 198.106 181.404 198.442 181.092C198.802 180.756 199.33 180.588 200.026 180.588H207.442C208.138 180.588 208.654 180.756 208.99 181.092C209.35 181.404 209.53 181.836 209.53 182.388C209.53 182.94 209.35 183.372 208.99 183.684C208.654 183.996 208.138 184.152 207.442 184.152H200.026ZM220.489 192.288C217.873 192.288 215.761 191.772 214.153 190.74C213.385 190.284 213.001 189.636 213.001 188.796C213.001 188.316 213.133 187.932 213.397 187.644C213.661 187.332 213.985 187.176 214.369 187.176C214.777 187.176 215.341 187.368 216.061 187.752C216.829 188.112 217.525 188.388 218.149 188.58C218.797 188.772 219.613 188.868 220.597 188.868C221.605 188.868 222.385 188.7 222.937 188.364C223.513 188.028 223.801 187.56 223.801 186.96C223.801 186.552 223.681 186.228 223.441 185.988C223.225 185.748 222.817 185.532 222.217 185.34C221.641 185.124 220.753 184.884 219.553 184.62C217.417 184.188 215.881 183.576 214.945 182.784C214.033 181.992 213.577 180.9 213.577 179.508C213.577 178.452 213.889 177.504 214.513 176.664C215.137 175.8 215.989 175.14 217.069 174.684C218.173 174.204 219.421 173.964 220.813 173.964C221.821 173.964 222.793 174.096 223.729 174.36C224.665 174.6 225.505 174.96 226.249 175.44C227.017 175.92 227.401 176.556 227.401 177.348C227.401 177.828 227.269 178.236 227.005 178.572C226.741 178.884 226.417 179.04 226.033 179.04C225.769 179.04 225.505 178.992 225.241 178.896C225.001 178.776 224.689 178.608 224.305 178.392C223.609 178.032 223.009 177.768 222.505 177.6C222.001 177.408 221.377 177.312 220.633 177.312C219.745 177.312 219.037 177.492 218.509 177.852C218.005 178.212 217.753 178.704 217.753 179.328C217.753 179.928 218.017 180.384 218.545 180.696C219.073 181.008 220.093 181.32 221.605 181.632C223.213 181.968 224.473 182.352 225.385 182.784C226.297 183.216 226.945 183.756 227.329 184.404C227.737 185.052 227.941 185.88 227.941 186.888C227.941 188.52 227.257 189.828 225.889 190.812C224.545 191.796 222.745 192.288 220.489 192.288ZM239.402 192.288C237.65 192.288 236.102 191.916 234.758 191.172C233.438 190.428 232.418 189.372 231.698 188.004C230.978 186.636 230.618 185.04 230.618 183.216C230.618 181.392 230.99 179.784 231.734 178.392C232.502 176.976 233.57 175.884 234.938 175.116C236.306 174.348 237.878 173.964 239.654 173.964C240.59 173.964 241.526 174.096 242.462 174.36C243.422 174.624 244.262 174.984 244.982 175.44C245.75 175.944 246.134 176.58 246.134 177.348C246.134 177.876 246.002 178.308 245.738 178.644C245.498 178.956 245.174 179.112 244.766 179.112C244.502 179.112 244.226 179.052 243.938 178.932C243.65 178.812 243.362 178.668 243.074 178.5C242.546 178.188 242.042 177.948 241.562 177.78C241.082 177.588 240.53 177.492 239.906 177.492C238.418 177.492 237.266 177.984 236.45 178.968C235.658 179.928 235.262 181.32 235.262 183.144C235.262 184.944 235.658 186.336 236.45 187.32C237.266 188.28 238.418 188.76 239.906 188.76C240.506 188.76 241.034 188.676 241.49 188.508C241.97 188.316 242.498 188.064 243.074 187.752C243.434 187.536 243.746 187.38 244.01 187.284C244.274 187.164 244.538 187.104 244.802 187.104C245.186 187.104 245.51 187.272 245.774 187.608C246.038 187.944 246.17 188.364 246.17 188.868C246.17 189.276 246.074 189.636 245.882 189.948C245.714 190.236 245.426 190.5 245.018 190.74C244.274 191.22 243.41 191.604 242.426 191.892C241.442 192.156 240.434 192.288 239.402 192.288ZM259.464 173.964C263.592 173.964 265.656 176.376 265.656 181.2V190.056C265.656 190.728 265.452 191.256 265.044 191.64C264.66 192.024 264.12 192.216 263.424 192.216C262.728 192.216 262.176 192.024 261.768 191.64C261.36 191.256 261.156 190.728 261.156 190.056V181.2C261.156 179.928 260.892 179.004 260.364 178.428C259.86 177.828 259.056 177.528 257.952 177.528C256.656 177.528 255.612 177.936 254.82 178.752C254.052 179.568 253.668 180.66 253.668 182.028V190.056C253.668 190.728 253.464 191.256 253.056 191.64C252.648 192.024 252.096 192.216 251.4 192.216C250.704 192.216 250.152 192.024 249.744 191.64C249.36 191.256 249.168 190.728 249.168 190.056V168.528C249.168 167.904 249.372 167.4 249.78 167.016C250.212 166.632 250.764 166.44 251.436 166.44C252.108 166.44 252.648 166.62 253.056 166.98C253.464 167.34 253.668 167.832 253.668 168.456V176.844C254.268 175.908 255.06 175.2 256.044 174.72C257.052 174.216 258.192 173.964 259.464 173.964ZM278.255 192.288C276.455 192.288 274.871 191.916 273.503 191.172C272.159 190.428 271.115 189.36 270.371 187.968C269.627 186.576 269.255 184.956 269.255 183.108C269.255 181.26 269.627 179.652 270.371 178.284C271.115 176.892 272.159 175.824 273.503 175.08C274.871 174.336 276.455 173.964 278.255 173.964C280.055 173.964 281.627 174.336 282.971 175.08C284.339 175.824 285.383 176.892 286.103 178.284C286.847 179.652 287.219 181.26 287.219 183.108C287.219 184.956 286.847 186.576 286.103 187.968C285.383 189.36 284.339 190.428 282.971 191.172C281.627 191.916 280.055 192.288 278.255 192.288ZM278.219 188.796C279.683 188.796 280.799 188.316 281.567 187.356C282.335 186.396 282.719 184.98 282.719 183.108C282.719 181.26 282.335 179.856 281.567 178.896C280.799 177.912 279.695 177.42 278.255 177.42C276.815 177.42 275.699 177.912 274.907 178.896C274.139 179.856 273.755 181.26 273.755 183.108C273.755 184.98 274.139 186.396 274.907 187.356C275.675 188.316 276.779 188.796 278.219 188.796ZM298.962 192.288C297.162 192.288 295.578 191.916 294.21 191.172C292.866 190.428 291.822 189.36 291.078 187.968C290.334 186.576 289.962 184.956 289.962 183.108C289.962 181.26 290.334 179.652 291.078 178.284C291.822 176.892 292.866 175.824 294.21 175.08C295.578 174.336 297.162 173.964 298.962 173.964C300.762 173.964 302.334 174.336 303.678 175.08C305.046 175.824 306.09 176.892 306.81 178.284C307.554 179.652 307.926 181.26 307.926 183.108C307.926 184.956 307.554 186.576 306.81 187.968C306.09 189.36 305.046 190.428 303.678 191.172C302.334 191.916 300.762 192.288 298.962 192.288ZM298.926 188.796C300.39 188.796 301.506 188.316 302.274 187.356C303.042 186.396 303.426 184.98 303.426 183.108C303.426 181.26 303.042 179.856 302.274 178.896C301.506 177.912 300.402 177.42 298.962 177.42C297.522 177.42 296.406 177.912 295.614 178.896C294.846 179.856 294.462 181.26 294.462 183.108C294.462 184.98 294.846 186.396 295.614 187.356C296.382 188.316 297.486 188.796 298.926 188.796ZM313.873 192.216C313.225 192.216 312.685 192.036 312.253 191.676C311.845 191.292 311.641 190.752 311.641 190.056V168.564C311.641 167.868 311.845 167.34 312.253 166.98C312.685 166.62 313.225 166.44 313.873 166.44C314.521 166.44 315.061 166.62 315.493 166.98C315.925 167.34 316.141 167.868 316.141 168.564V190.056C316.141 190.752 315.925 191.292 315.493 191.676C315.061 192.036 314.521 192.216 313.873 192.216ZM339.735 192.324C337.887 192.324 336.135 192.084 334.479 191.604C332.847 191.1 331.515 190.428 330.483 189.588C329.931 189.18 329.655 188.604 329.655 187.86C329.655 187.356 329.799 186.924 330.087 186.564C330.399 186.18 330.759 185.988 331.167 185.988C331.599 185.988 332.091 186.156 332.643 186.492C333.675 187.236 334.755 187.776 335.883 188.112C337.011 188.448 338.259 188.616 339.627 188.616C341.379 188.616 342.723 188.316 343.659 187.716C344.595 187.092 345.063 186.192 345.063 185.016C345.063 184.104 344.619 183.408 343.731 182.928C342.867 182.424 341.415 181.944 339.375 181.488C337.263 181.032 335.547 180.504 334.227 179.904C332.907 179.304 331.911 178.536 331.239 177.6C330.567 176.664 330.231 175.476 330.231 174.036C330.231 172.548 330.651 171.216 331.491 170.04C332.331 168.864 333.495 167.952 334.983 167.304C336.495 166.632 338.187 166.296 340.059 166.296C343.491 166.296 346.287 167.208 348.447 169.032C348.759 169.296 348.975 169.56 349.095 169.824C349.239 170.064 349.311 170.376 349.311 170.76C349.311 171.264 349.155 171.708 348.843 172.092C348.555 172.452 348.207 172.632 347.799 172.632C347.559 172.632 347.331 172.596 347.115 172.524C346.923 172.452 346.659 172.32 346.323 172.128C345.339 171.408 344.379 170.88 343.443 170.544C342.531 170.184 341.403 170.004 340.059 170.004C338.427 170.004 337.131 170.34 336.171 171.012C335.235 171.66 334.767 172.572 334.767 173.748C334.767 174.732 335.187 175.488 336.027 176.016C336.867 176.544 338.295 177.036 340.311 177.492C342.447 177.972 344.175 178.512 345.495 179.112C346.839 179.688 347.859 180.432 348.555 181.344C349.275 182.256 349.635 183.396 349.635 184.764C349.635 186.252 349.215 187.572 348.375 188.724C347.559 189.852 346.395 190.74 344.883 191.388C343.395 192.012 341.679 192.324 339.735 192.324ZM361.697 192.18C360.977 192.18 360.401 191.976 359.969 191.568C359.561 191.136 359.357 190.572 359.357 189.876V170.436H352.805C351.365 170.436 350.645 169.8 350.645 168.528C350.645 167.256 351.365 166.62 352.805 166.62H370.553C371.993 166.62 372.713 167.256 372.713 168.528C372.713 169.8 371.993 170.436 370.553 170.436H364.001V189.876C364.001 190.572 363.785 191.136 363.353 191.568C362.945 191.976 362.393 192.18 361.697 192.18ZM377.691 192C376.995 192 376.443 191.808 376.035 191.424C375.651 191.04 375.459 190.5 375.459 189.804V168.816C375.459 168.12 375.651 167.58 376.035 167.196C376.443 166.812 376.995 166.62 377.691 166.62H390.687C391.383 166.62 391.923 166.776 392.307 167.088C392.691 167.4 392.883 167.844 392.883 168.42C392.883 169.02 392.691 169.488 392.307 169.824C391.923 170.136 391.383 170.292 390.687 170.292H379.995V177.276H389.967C390.663 177.276 391.203 177.432 391.587 177.744C391.971 178.056 392.163 178.512 392.163 179.112C392.163 179.688 391.971 180.132 391.587 180.444C391.203 180.756 390.663 180.912 389.967 180.912H379.995V188.328H390.687C391.383 188.328 391.923 188.496 392.307 188.832C392.691 189.144 392.883 189.6 392.883 190.2C392.883 190.776 392.691 191.22 392.307 191.532C391.923 191.844 391.383 192 390.687 192H377.691ZM419.194 166.44C419.866 166.44 420.406 166.656 420.814 167.088C421.222 167.496 421.426 168.048 421.426 168.744V190.056C421.426 190.728 421.234 191.256 420.85 191.64C420.466 192.024 419.962 192.216 419.338 192.216C418.714 192.216 418.222 192.024 417.862 191.64C417.502 191.256 417.322 190.728 417.322 190.056V175.224L411.202 186.816C410.914 187.344 410.602 187.74 410.266 188.004C409.93 188.244 409.534 188.364 409.078 188.364C408.622 188.364 408.226 188.244 407.89 188.004C407.554 187.764 407.242 187.368 406.954 186.816L400.798 175.404V190.056C400.798 190.704 400.606 191.232 400.222 191.64C399.862 192.024 399.37 192.216 398.746 192.216C398.122 192.216 397.63 192.024 397.27 191.64C396.91 191.256 396.73 190.728 396.73 190.056V168.744C396.73 168.048 396.922 167.496 397.306 167.088C397.714 166.656 398.254 166.44 398.926 166.44C399.862 166.44 400.594 166.956 401.122 167.988L409.114 183.216L417.07 167.988C417.598 166.956 418.306 166.44 419.194 166.44ZM131.456 222.964C132.968 222.964 134.312 223.348 135.488 224.116C136.688 224.884 137.612 225.976 138.26 227.392C138.932 228.784 139.268 230.392 139.268 232.216C139.268 234.04 138.932 235.636 138.26 237.004C137.612 238.372 136.7 239.428 135.524 240.172C134.348 240.916 132.992 241.288 131.456 241.288C130.208 241.288 129.092 241.024 128.108 240.496C127.124 239.968 126.368 239.236 125.84 238.3V245.644C125.84 246.268 125.636 246.76 125.228 247.12C124.82 247.48 124.28 247.66 123.608 247.66C122.936 247.66 122.384 247.468 121.952 247.084C121.544 246.7 121.34 246.196 121.34 245.572V225.16C121.34 224.512 121.532 223.996 121.916 223.612C122.324 223.228 122.864 223.036 123.536 223.036C124.208 223.036 124.748 223.228 125.156 223.612C125.564 223.996 125.768 224.512 125.768 225.16V226.06C126.296 225.076 127.052 224.32 128.036 223.792C129.044 223.24 130.184 222.964 131.456 222.964ZM130.268 237.796C131.684 237.796 132.788 237.316 133.58 236.356C134.372 235.372 134.768 233.992 134.768 232.216C134.768 230.392 134.372 228.976 133.58 227.968C132.788 226.96 131.684 226.456 130.268 226.456C128.828 226.456 127.712 226.948 126.92 227.932C126.152 228.916 125.768 230.32 125.768 232.144C125.768 233.944 126.152 235.336 126.92 236.32C127.712 237.304 128.828 237.796 130.268 237.796ZM152.789 223.036C153.413 222.988 153.905 223.12 154.265 223.432C154.625 223.744 154.805 224.212 154.805 224.836C154.805 225.484 154.649 225.964 154.337 226.276C154.025 226.588 153.461 226.792 152.645 226.888L151.565 226.996C150.149 227.14 149.105 227.62 148.433 228.436C147.785 229.252 147.461 230.272 147.461 231.496V239.056C147.461 239.752 147.245 240.292 146.813 240.676C146.381 241.036 145.841 241.216 145.193 241.216C144.545 241.216 144.005 241.036 143.573 240.676C143.165 240.292 142.961 239.752 142.961 239.056V225.124C142.961 224.452 143.165 223.936 143.573 223.576C144.005 223.216 144.533 223.036 145.157 223.036C145.781 223.036 146.285 223.216 146.669 223.576C147.053 223.912 147.245 224.404 147.245 225.052V226.492C147.701 225.436 148.373 224.62 149.261 224.044C150.173 223.468 151.181 223.144 152.285 223.072L152.789 223.036ZM164.419 241.288C162.619 241.288 161.035 240.916 159.667 240.172C158.323 239.428 157.279 238.36 156.535 236.968C155.791 235.576 155.419 233.956 155.419 232.108C155.419 230.26 155.791 228.652 156.535 227.284C157.279 225.892 158.323 224.824 159.667 224.08C161.035 223.336 162.619 222.964 164.419 222.964C166.219 222.964 167.791 223.336 169.135 224.08C170.503 224.824 171.547 225.892 172.267 227.284C173.011 228.652 173.383 230.26 173.383 232.108C173.383 233.956 173.011 235.576 172.267 236.968C171.547 238.36 170.503 239.428 169.135 240.172C167.791 240.916 166.219 241.288 164.419 241.288ZM164.383 237.796C165.847 237.796 166.963 237.316 167.731 236.356C168.499 235.396 168.883 233.98 168.883 232.108C168.883 230.26 168.499 228.856 167.731 227.896C166.963 226.912 165.859 226.42 164.419 226.42C162.979 226.42 161.863 226.912 161.071 227.896C160.303 228.856 159.919 230.26 159.919 232.108C159.919 233.98 160.303 235.396 161.071 236.356C161.839 237.316 162.943 237.796 164.383 237.796ZM192.002 223.036C192.674 223.036 193.214 223.228 193.622 223.612C194.03 223.996 194.234 224.512 194.234 225.16V239.38C194.234 242.14 193.466 244.228 191.93 245.644C190.394 247.06 188.126 247.768 185.126 247.768C182.51 247.768 180.326 247.276 178.574 246.292C177.686 245.764 177.242 245.128 177.242 244.384C177.242 243.856 177.362 243.436 177.602 243.124C177.866 242.812 178.202 242.656 178.61 242.656C178.826 242.656 179.09 242.704 179.402 242.8C179.714 242.92 180.038 243.052 180.374 243.196C181.238 243.556 182.006 243.832 182.678 244.024C183.374 244.216 184.166 244.312 185.054 244.312C188.198 244.312 189.77 242.776 189.77 239.704V237.4C189.242 238.384 188.474 239.152 187.466 239.704C186.458 240.232 185.306 240.496 184.01 240.496C182.474 240.496 181.106 240.136 179.906 239.416C178.73 238.672 177.806 237.64 177.134 236.32C176.462 235 176.126 233.476 176.126 231.748C176.126 230.02 176.45 228.496 177.098 227.176C177.77 225.832 178.706 224.8 179.906 224.08C181.106 223.336 182.474 222.964 184.01 222.964C185.306 222.964 186.458 223.24 187.466 223.792C188.474 224.32 189.242 225.076 189.77 226.06V225.124C189.77 224.5 189.974 223.996 190.382 223.612C190.79 223.228 191.33 223.036 192.002 223.036ZM185.198 237.004C186.638 237.004 187.754 236.536 188.546 235.6C189.362 234.664 189.77 233.38 189.77 231.748C189.77 230.092 189.362 228.796 188.546 227.86C187.754 226.924 186.638 226.456 185.198 226.456C183.782 226.456 182.666 226.924 181.85 227.86C181.034 228.796 180.626 230.092 180.626 231.748C180.626 233.38 181.034 234.664 181.85 235.6C182.666 236.536 183.782 237.004 185.198 237.004ZM208.723 223.036C209.347 222.988 209.839 223.12 210.199 223.432C210.559 223.744 210.739 224.212 210.739 224.836C210.739 225.484 210.583 225.964 210.271 226.276C209.959 226.588 209.395 226.792 208.579 226.888L207.499 226.996C206.083 227.14 205.039 227.62 204.367 228.436C203.719 229.252 203.395 230.272 203.395 231.496V239.056C203.395 239.752 203.179 240.292 202.747 240.676C202.315 241.036 201.775 241.216 201.127 241.216C200.479 241.216 199.939 241.036 199.507 240.676C199.099 240.292 198.895 239.752 198.895 239.056V225.124C198.895 224.452 199.099 223.936 199.507 223.576C199.939 223.216 200.467 223.036 201.091 223.036C201.715 223.036 202.219 223.216 202.603 223.576C202.987 223.912 203.179 224.404 203.179 225.052V226.492C203.635 225.436 204.307 224.62 205.195 224.044C206.107 223.468 207.115 223.144 208.219 223.072L208.723 223.036ZM220.238 222.964C222.686 222.964 224.498 223.576 225.674 224.8C226.874 226 227.474 227.836 227.474 230.308V239.092C227.474 239.74 227.282 240.256 226.898 240.64C226.514 241 225.986 241.18 225.314 241.18C224.69 241.18 224.174 240.988 223.766 240.604C223.382 240.22 223.19 239.716 223.19 239.092V238.3C222.782 239.236 222.134 239.968 221.246 240.496C220.382 241.024 219.374 241.288 218.222 241.288C217.046 241.288 215.978 241.048 215.018 240.568C214.058 240.088 213.302 239.428 212.75 238.588C212.198 237.748 211.922 236.812 211.922 235.78C211.922 234.484 212.246 233.464 212.894 232.72C213.566 231.976 214.646 231.436 216.134 231.1C217.622 230.764 219.674 230.596 222.29 230.596H223.19V229.768C223.19 228.592 222.938 227.74 222.434 227.212C221.93 226.66 221.114 226.384 219.986 226.384C219.29 226.384 218.582 226.492 217.862 226.708C217.142 226.9 216.29 227.188 215.306 227.572C214.682 227.884 214.226 228.04 213.938 228.04C213.506 228.04 213.146 227.884 212.858 227.572C212.594 227.26 212.462 226.852 212.462 226.348C212.462 225.94 212.558 225.592 212.75 225.304C212.966 224.992 213.314 224.704 213.794 224.44C214.634 223.984 215.63 223.624 216.782 223.36C217.958 223.096 219.11 222.964 220.238 222.964ZM219.122 238.048C220.322 238.048 221.294 237.652 222.038 236.86C222.806 236.044 223.19 235 223.19 233.728V232.972H222.542C220.934 232.972 219.686 233.044 218.798 233.188C217.91 233.332 217.274 233.584 216.89 233.944C216.506 234.304 216.314 234.796 216.314 235.42C216.314 236.188 216.578 236.824 217.106 237.328C217.658 237.808 218.33 238.048 219.122 238.048ZM252.963 222.964C254.883 222.964 256.347 223.54 257.355 224.692C258.387 225.82 258.903 227.656 258.903 230.2V239.056C258.903 239.752 258.687 240.292 258.255 240.676C257.847 241.036 257.307 241.216 256.635 241.216C255.987 241.216 255.447 241.036 255.015 240.676C254.607 240.292 254.403 239.752 254.403 239.056V230.2C254.403 228.88 254.163 227.944 253.683 227.392C253.227 226.816 252.519 226.528 251.559 226.528C250.383 226.528 249.447 226.936 248.751 227.752C248.055 228.544 247.707 229.636 247.707 231.028V239.056C247.707 239.752 247.491 240.292 247.059 240.676C246.651 241.036 246.123 241.216 245.475 241.216C244.827 241.216 244.287 241.036 243.855 240.676C243.423 240.292 243.207 239.752 243.207 239.056V230.2C243.207 228.88 242.967 227.944 242.487 227.392C242.031 226.816 241.323 226.528 240.363 226.528C239.187 226.528 238.251 226.936 237.555 227.752C236.883 228.544 236.547 229.636 236.547 231.028V239.056C236.547 239.752 236.331 240.292 235.899 240.676C235.467 241.036 234.927 241.216 234.279 241.216C233.631 241.216 233.091 241.036 232.659 240.676C232.251 240.292 232.047 239.752 232.047 239.056V225.124C232.047 224.452 232.263 223.936 232.695 223.576C233.127 223.216 233.667 223.036 234.315 223.036C234.939 223.036 235.443 223.216 235.827 223.576C236.235 223.912 236.439 224.404 236.439 225.052V225.916C236.991 224.956 237.723 224.224 238.635 223.72C239.571 223.216 240.639 222.964 241.839 222.964C244.479 222.964 246.243 224.068 247.131 226.276C247.659 225.268 248.439 224.464 249.471 223.864C250.503 223.264 251.667 222.964 252.963 222.964ZM269.849 241.288C267.233 241.288 265.121 240.772 263.513 239.74C262.745 239.284 262.361 238.636 262.361 237.796C262.361 237.316 262.493 236.932 262.757 236.644C263.021 236.332 263.345 236.176 263.729 236.176C264.137 236.176 264.701 236.368 265.421 236.752C266.189 237.112 266.885 237.388 267.509 237.58C268.157 237.772 268.973 237.868 269.957 237.868C270.965 237.868 271.745 237.7 272.297 237.364C272.873 237.028 273.161 236.56 273.161 235.96C273.161 235.552 273.041 235.228 272.801 234.988C272.585 234.748 272.177 234.532 271.577 234.34C271.001 234.124 270.113 233.884 268.913 233.62C266.777 233.188 265.241 232.576 264.305 231.784C263.393 230.992 262.937 229.9 262.937 228.508C262.937 227.452 263.249 226.504 263.873 225.664C264.497 224.8 265.349 224.14 266.429 223.684C267.533 223.204 268.781 222.964 270.173 222.964C271.181 222.964 272.153 223.096 273.089 223.36C274.025 223.6 274.865 223.96 275.609 224.44C276.377 224.92 276.761 225.556 276.761 226.348C276.761 226.828 276.629 227.236 276.365 227.572C276.101 227.884 275.777 228.04 275.393 228.04C275.129 228.04 274.865 227.992 274.601 227.896C274.361 227.776 274.049 227.608 273.665 227.392C272.969 227.032 272.369 226.768 271.865 226.6C271.361 226.408 270.737 226.312 269.993 226.312C269.105 226.312 268.397 226.492 267.869 226.852C267.365 227.212 267.113 227.704 267.113 228.328C267.113 228.928 267.377 229.384 267.905 229.696C268.433 230.008 269.453 230.32 270.965 230.632C272.573 230.968 273.833 231.352 274.745 231.784C275.657 232.216 276.305 232.756 276.689 233.404C277.097 234.052 277.301 234.88 277.301 235.888C277.301 237.52 276.617 238.828 275.249 239.812C273.905 240.796 272.105 241.288 269.849 241.288ZM282.898 241.216C282.13 241.216 281.494 240.964 280.99 240.46C280.486 239.932 280.234 239.284 280.234 238.516C280.234 237.748 280.486 237.112 280.99 236.608C281.494 236.08 282.13 235.816 282.898 235.816C283.666 235.816 284.302 236.08 284.806 236.608C285.31 237.112 285.562 237.748 285.562 238.516C285.562 239.284 285.31 239.932 284.806 240.46C284.302 240.964 283.666 241.216 282.898 241.216ZM291.827 241.216C291.059 241.216 290.423 240.964 289.919 240.46C289.415 239.932 289.163 239.284 289.163 238.516C289.163 237.748 289.415 237.112 289.919 236.608C290.423 236.08 291.059 235.816 291.827 235.816C292.595 235.816 293.231 236.08 293.735 236.608C294.239 237.112 294.491 237.748 294.491 238.516C294.491 239.284 294.239 239.932 293.735 240.46C293.231 240.964 292.595 241.216 291.827 241.216ZM298.646 215.44C299.462 215.44 300.122 215.74 300.626 216.34C301.13 216.94 301.382 217.816 301.382 218.968C301.382 221.224 300.59 223.204 299.006 224.908C298.718 225.22 298.382 225.376 297.998 225.376C297.662 225.376 297.35 225.256 297.062 225.016C296.798 224.752 296.666 224.452 296.666 224.116C296.666 223.828 296.786 223.552 297.026 223.288C297.746 222.52 298.214 221.656 298.43 220.696C297.734 220.624 297.158 220.36 296.702 219.904C296.27 219.424 296.054 218.836 296.054 218.14C296.054 217.372 296.294 216.736 296.774 216.232C297.278 215.704 297.902 215.44 298.646 215.44ZM305.558 215.44C306.374 215.44 307.034 215.74 307.538 216.34C308.042 216.94 308.294 217.816 308.294 218.968C308.294 221.224 307.502 223.204 305.918 224.908C305.63 225.22 305.294 225.376 304.91 225.376C304.574 225.376 304.262 225.256 303.974 225.016C303.71 224.752 303.578 224.452 303.578 224.116C303.578 223.828 303.698 223.552 303.938 223.288C304.658 222.52 305.126 221.656 305.342 220.696C304.646 220.624 304.07 220.36 303.614 219.904C303.182 219.424 302.966 218.836 302.966 218.14C302.966 217.372 303.206 216.736 303.686 216.232C304.19 215.704 304.814 215.44 305.558 215.44Z" fill="white"/>
</svg>
