
        <svg xmlns="http://www.w3.org/2000/svg" xmlns:xlink="http://www.w3.org/1999/xlink" version="1.1" width="3342.6256514435695" 
        height="3696.743231150301" viewBox="0 0 3342.6256514435695 3696.743231150301">
			
			<g transform="scale(34.83716155751505) translate(10, 10)">
				<defs id="SvgjsDefs4665"></defs><g id="SvgjsG4666" featureKey="rootContainer" transform="matrix(1.5312495760380473,0,0,1.5312495760380473,0.000011267008112020252,0.006390739980358491)" fill="#2f3e50"><path xmlns="http://www.w3.org/2000/svg" d="M23.11 55.78L1.69 43.41A3.39 3.39 0 0 1 0 40.48V15.75a3.39 3.39 0 0 1 1.69-2.94L23.11.45a3.39 3.39 0 0 1 3.39 0l21.41 12.37a3.39 3.39 0 0 1 1.69 2.94v24.72a3.39 3.39 0 0 1-1.69 2.94L26.5 55.78a3.39 3.39 0 0 1-3.39 0z"></path></g><g id="SvgjsG4667" featureKey="nameLeftFeature-0" transform="matrix(2.253521157029933,0,0,2.253521157029933,11.407567634146886,13.4788773560709)" fill="#d9faff"><path d="M2.16 17.16 c0.2 -0.16 0.42 -0.14 0.62 0.06 c0.32 0.28 0.74 0.56 1.52 0.56 c1.86 0 2.02 -1.26 2.02 -2.38 l0 -9.1 c0 -0.2 0.1 -0.3 0.3 -0.3 l2.04 0 c0.2 0 0.3 0.1 0.3 0.3 l0 9.34 c0 2.66 -1.68 4.5 -4.66 4.5 c-1.56 0 -2.68 -0.5 -3.48 -1.32 c-0.18 -0.2 -0.14 -0.42 0.08 -0.62 z"></path></g><g id="SvgjsG4668" featureKey="nameRightFeature-0" transform="matrix(2.2385975434550165,0,0,2.2385975434550165,38.53754291568878,13.792273212679614)" fill="#d9faff"><path d="M10.1 12.559999999999999 c0.16 0 0.28 0.12 0.28 0.3 l0 3.08 c0 2.8 -1.46 4.16 -4.02 4.16 l-1.24 0 c-2.56 0 -4.02 -1.36 -4.02 -4.16 l0 -5.88 c0 -2.8 1.46 -4.16 4.02 -4.16 l1.24 0 c2.48 0 3.9 1.26 4.02 3.94 c0 0.18 -0.12 0.28 -0.28 0.28 l-0.44 0 c-0.18 0 -0.3 -0.1 -0.3 -0.28 c-0.08 -2.08 -0.96 -2.98 -3 -2.98 l-1.24 0 c-2.12 0 -3 0.98 -3 3.2 l0 5.88 c0 2.22 0.88 3.2 3 3.2 l1.24 0 c2.14 0 3 -0.98 3 -3.2 l0 -2.44 l-2.26 0 c-0.16 0 -0.28 -0.1 -0.28 -0.28 l0 -0.36 c0 -0.18 0.12 -0.3 0.28 -0.3 l3 0 z"></path></g>
			</g>
		</svg>
	